<?xml version="1.0" standalone="no"?>
<!DOCTYPE svg PUBLIC "-//W3C//DTD SVG 1.1//EN" "http://www.w3.org/Graphics/SVG/1.1/DTD/svg11.dtd" >
<svg xmlns="http://www.w3.org/2000/svg">
<metadata></metadata>
<defs>
<font id="tt_masters_demo_blackregular" horiz-adv-x="1204" >
<font-face units-per-em="2048" ascent="1638" descent="-410" />
<missing-glyph horiz-adv-x="450" />
<glyph horiz-adv-x="0" />
<glyph horiz-adv-x="682" />
<glyph unicode=" "  horiz-adv-x="450" />
<glyph unicode="&#x09;" horiz-adv-x="450" />
<glyph unicode="&#xa0;" horiz-adv-x="450" />
<glyph unicode="!" horiz-adv-x="677" d="M61 182q0 108 27 232q9 39 49 39q59 0 135.5 -18.5t126.5 -51.5q23 -14 40.5 -45.5t13.5 -56.5q-5 -33 -18 -139t-25 -146q-7 -23 -16.5 -33t-31.5 -10q-150 0 -280 162q-21 27 -21 67zM123 694q-17 238 2 441.5t55 302.5q5 13 28 27t46 14q50 0 144 -18t134 -34 q35 -13 62.5 -43t19.5 -79q-37 -213 -192 -734q-6 -21 -32 -42t-48 -21q-49 0 -83 6t-55 19.5t-30 23.5t-22 29q-10 14 -18.5 49.5t-10.5 58.5z" />
<glyph unicode="&#x22;" horiz-adv-x="741" d="M83 1125q1 11 5 31t4 30q0 37 14.5 115t36.5 114q2 2 7.5 13t9 16.5t12.5 10t21 3.5q20 -3 42.5 -3.5t38.5 -3t39 -11.5q25 -9 34.5 -23t6.5 -39q-13 -94 -43 -205.5t-53 -158.5q-2 -4 -5 -11.5t-4.5 -11t-4.5 -9t-6 -8t-7 -4.5t-9 -2t-11 3q-38 15 -67.5 43t-57.5 86 q-4 14 -3 25zM388.5 1140.5q6.5 38.5 6.5 45.5q0 37 14.5 115t36.5 114q2 2 7.5 13t9 16.5t12.5 10t21 3.5q20 -3 42.5 -3.5t38.5 -3t39 -11.5q25 -9 34.5 -23t6.5 -39q-13 -94 -43 -205.5t-53 -158.5q-2 -4 -5 -11.5t-4.5 -11t-4.5 -9t-6 -8t-7 -4.5t-9 -2t-11 3 q-38 15 -67.5 43t-57.5 86q-7 2 -0.5 40.5z" />
<glyph unicode="#" horiz-adv-x="1613" d="M3.5 558q8.5 21 29.5 22q23 2 67 3.5t111.5 4t120.5 4.5q5 26 35 158q-76 -3 -125 -9q-53 4 -83 22t-65 60q-44 49 -53 119q-7 61 27 66q23 3 368 24q89 354 96 406q2 14 24 28.5t46 14.5t59 -9t58 -18t61 -24.5t45 -18.5q24 -9 36 -31t7 -47q-21 -118 -61 -272l98 12 l82 10q74 299 82 347q2 14 24 28.5t46 14.5q20 0 42.5 -4t48.5 -12.5t42.5 -14.5t44 -17.5t33.5 -13.5q24 -9 36 -31t7 -47q-8 -48 -45 -198q0 -18 16 -21q131 7 141 2q37 -19 56 -49.5t45 -124.5q21 -73 -33 -80q-36 -4 -137 -18.5t-170 -22.5q-31 -102 -41 -147 q225 19 239 12q10 -5 17.5 -10t15.5 -14t13.5 -15t15.5 -22t16 -26t21.5 -36t25.5 -43t12 -33.5t-7 -30t-31 -16.5q-19 -3 -155.5 -23.5t-236.5 -31.5q-17 -6 -26 -23q-51 -201 -76 -335q-5 -23 -15 -33t-32 -10q-81 0 -201 149q-26 33 -20 78q5 52 22 145q-19 -1 -90.5 -9 t-107.5 -11q-44 -183 -66 -328q-3 -22 -13.5 -32.5t-33.5 -10.5q-17 0 -35 5.5t-32.5 12t-32 20.5t-28 23.5t-27.5 28.5t-23.5 27t-23 28.5t-19.5 24.5q-24 31 -21 68q2 44 13 119q-45 -5 -47 -5q-54 4 -85.5 22.5t-66.5 59.5q-48 54 -78 115q-11 23 -2.5 44zM690 612 q67 4 193 21q6 31 20 87t17 71l-97 -5l-90 -10z" />
<glyph unicode="$" horiz-adv-x="1105" d="M20 938q0 215 132.5 371t343.5 182q6 53 21.5 135t25.5 115q4 13 8 21t15 16t26 6q12 -2 24 -5t25.5 -9t23 -10t25.5 -13t22.5 -13t24 -15t21.5 -13q27 -15 35.5 -26.5t5.5 -34.5q-4 -29 -11.5 -89t-11.5 -86q39 -10 160 -57q63 -27 108.5 -86t38.5 -121 q-13 -118 -32 -178q-23 -75 -68 -156q-1 -2 -6.5 -12.5t-10 -18.5t-13 -20t-16.5 -21t-20.5 -17t-25.5 -11q-13 -4 -30 1.5t-42.5 17t-42.5 16.5q-50 10 -71 26t-23.5 45.5t2.5 75.5q14 158 -100 158q-55 0 -94 -47.5t-39 -122.5q0 -59 19.5 -103.5t52 -72.5t74.5 -49.5 t88 -38.5t92.5 -35t88 -43t74 -59t51.5 -87t19 -122q0 -93 -37 -168t-97 -120t-130 -69.5t-144 -27.5q-9 -174 -20 -213q-14 -43 -50 -43q-72 0 -176 51q-26 13 -35 25t-6 36q1 14 5.5 78t7.5 101q-105 37 -170 116q-52 61 -85 124t-34 108q-1 41 3.5 61.5t10 25.5t21.5 11 q15 6 37 -2t56 -26t60 -27q11 -4 45 -15.5t43 -14t34 -9t38 -7.5t32.5 -0.5t39.5 3.5q92 17 94 82q1 17 -12.5 32.5t-44.5 32t-60 29.5t-83.5 35.5t-90.5 38.5q-51 23 -80.5 39t-64.5 45t-53.5 63t-31 87.5t-12.5 123.5z" />
<glyph unicode="%" horiz-adv-x="1449" d="M61 1075q0 169 79.5 289.5t185.5 120.5q50 0 101 -12t79 -31q40 -25 73 -88t33 -166q0 -101 -38.5 -197.5t-97.5 -154.5t-118 -58q-74 0 -186 47q-111 47 -111 250zM70 72q9 -11 17.5 -21t15 -17.5t15.5 -15t13.5 -12t15 -11t13.5 -8.5t15.5 -8.5t15.5 -8.5t18.5 -9.5 t19.5 -9.5q41 -18 66 20q221 311 548 689t531 571q31 31 -10 80q-9 11 -25 33t-24.5 32.5t-26 24.5t-39.5 24q-7 3 -15 4t-14 0t-13.5 -4.5t-11 -5t-11 -6.5t-8.5 -6q-88 -59 -313.5 -300t-458 -524.5t-326.5 -441.5q-25 -47 -8 -69zM270 1079q0 -110 37 -110q28 0 66.5 96 t38.5 137q0 82 -52 82q-7 0 -11.5 -1t-5.5 -2.5t-2.5 -3.5t-2.5 -3q-22 -22 -45 -76t-23 -119zM807 246q0 167 66.5 278t154.5 111q50 0 139 -21.5t117 -40.5q35 -21 50.5 -64.5t15.5 -150.5q0 -152 -76.5 -269t-169.5 -128q-114 -13 -180 14q-49 21 -83 92t-34 179z M1016 250q0 -107 37 -107q28 0 63 92t35 134q0 45 -10.5 64.5t-34.5 19.5q-7 0 -13.5 -3t-10 -6.5t-7.5 -8.5l-4 -5q-20 -20 -37.5 -67.5t-17.5 -112.5z" />
<glyph unicode="&#x26;" horiz-adv-x="1290" d="M2 372.5q0 62.5 18.5 115.5t53 109t67 94.5t70.5 76.5v14q-22 34 -38.5 71.5t-28.5 87.5t-7 109.5t29 118.5q117 294 360 320q32 3 106.5 -21.5t151.5 -61.5t136 -85.5t59 -87.5q0 -44 -9.5 -86.5t-23 -77.5t-38 -73t-45.5 -64.5t-54 -61.5t-54.5 -55.5t-57 -53.5 t-52.5 -50q78 -81 152 -142q49 59 49 68q10 17 44.5 23t63.5 -13q21 -16 54 -37.5t52 -35t39 -35.5t29 -47q27 -46 15 -91q-13 -27 -33 -59q35 -20 66 -32.5t45 -15.5t14 -1q18 -12 28.5 -36.5t-1.5 -51.5q-64 -131 -138 -213q-18 -19 -36 -25t-48 0q-25 5 -79.5 31.5 t-100.5 58.5q-140 -113 -254 -102q-22 2 -68.5 22.5t-66.5 22.5q-184 61 -300.5 131t-141.5 123q-27 56 -27 118.5zM401 410q0 -30 23.5 -58t75.5 -28q19 0 49 18q-80 111 -121 143q-1 -2 -9.5 -13.5t-13 -25.5t-4.5 -36zM477 1022q0 -37 10 -61q45 27 78 63 q24 27 35.5 60.5t4 58t-35.5 24.5q-31 0 -53 -25.5t-30.5 -57t-8.5 -62.5zM1233 295l2 -2q-2 0 -2 2z" />
<glyph unicode="'" horiz-adv-x="438" d="M83 1125q1 11 5 31t4 30q0 37 14.5 115t36.5 114q2 2 7.5 13t9 16.5t12.5 10t21 3.5q20 -3 42.5 -3.5t38.5 -3t39 -11.5q25 -9 34.5 -23t6.5 -39q-13 -94 -43 -205.5t-53 -158.5q-2 -4 -5 -11.5t-4.5 -11t-4.5 -9t-6 -8t-7 -4.5t-9 -2t-11 3q-38 15 -67.5 43t-57.5 86 q-4 14 -3 25z" />
<glyph unicode="(" horiz-adv-x="704" d="M84 549q9 163 43 306t87 254t115 196t136 153q2 1 10 10t15 14t17 10t22 3.5t24 -10.5q38 -28 80 -115t65 -166q16 -55 -30 -117q-78 -97 -151 -246t-87 -286q-46 -443 170 -874q9 -19 -14 -38t-45 -10q-78 37 -293 211q-77 63 -126 282.5t-38 422.5z" />
<glyph unicode=")" horiz-adv-x="745" d="M6 -68q-16 55 31 117q77 96 150 245.5t87 287.5q46 443 -170 874q-9 19 14.5 37.5t45.5 9.5q78 -37 293 -211q77 -63 126 -282t38 -422q-18 -315 -121.5 -541t-259.5 -369q-2 -1 -10 -10t-15 -13.5t-17 -9.5t-22 -3.5t-24 10.5q-39 28 -81 115t-65 165z" />
<glyph unicode="*" horiz-adv-x="634" d="M106 1260q25 77 62 118q15 17 25.5 20t33.5 -7q8 -5 17.5 -14t16 -16.5t18 -21.5t16.5 -20v2q0 18 -3 59.5t-3 55.5q0 16 10.5 28.5t32.5 12.5h16h16.5t15 -0.5t17 -1.5t16.5 -3t19.5 -5t20.5 -7q24 -9 28.5 -19t-2.5 -34q-7 -28 -35 -96q57 26 88 35q13 9 34 0.5 t28 -31.5q1 -3 6 -17.5t5 -16t4 -16t3 -17t1 -19.5t-1 -23q-1 -21 -12 -29.5t-35 -11.5q-20 2 -88 2q37 -48 41 -51q14 -9 18 -29t-12 -40q-35 -38 -58 -51q-13 -8 -30 -15q-38 -14 -65 23q-19 29 -35 96l-64 -90q-5 -16 -22 -23t-39 4q-52 31 -84 76q-11 19 -11.5 29.5 t13.5 29.5q32 28 86 60q-66 14 -76 18q-16 2 -28 17.5t-5 38.5z" />
<glyph unicode="+" horiz-adv-x="974" d="M41 711q0 24 15 40.5t28 16.5q45 -2 250 14q19 164 33 256q2 18 17.5 30.5t41.5 12.5q43 -3 119.5 -29t89.5 -40q26 -26 18 -51q-11 -92 -20 -150q141 8 172 6q27 5 51 -22q12 -13 24.5 -86t12.5 -119q0 -25 -13.5 -40.5t-31.5 -17.5q-21 -2 -260 -20q-25 -175 -25 -242 q-2 -13 -19.5 -27.5t-41.5 -13.5q-117 0 -180 33q-14 6 -25 42t-8 73l10 117l-115 -11q-34 -4 -59 11t-33 32q-21 44 -36 98t-15 87z" />
<glyph unicode="," horiz-adv-x="462" d="M20 109q0 86 25 192q9 35 45 35q152 0 221 -45q20 -13 35.5 -41.5t11.5 -50.5q-18 -112 -39 -187q-5 -15 -8 -18q-25 -81 -86 -187q-21 -35 -47.5 -42.5t-62.5 8.5q-25 9 -34.5 23t-6.5 38q6 15 18.5 46t22.5 57.5t18 50.5q-59 14 -94 59q-19 25 -19 62z" />
<glyph unicode="-" horiz-adv-x="950" d="M41 674q0 24 15 40.5t28 16.5q65 -1 337.5 21t340.5 18q27 5 51 -22q13 -15 34 -83.5t21 -109.5q0 -26 -11 -40.5t-28 -12.5q-84 4 -294.5 -11t-327.5 -28q-34 -4 -58 10.5t-34 32.5q-74 125 -74 168z" />
<glyph unicode="." horiz-adv-x="462" d="M20 109q0 86 25 192q9 35 45 35q152 0 221 -45q20 -13 35.5 -41.5t11.5 -50.5q-18 -112 -39 -187q-7 -22 -15 -30.5t-28 -8.5q-96 0 -150 16t-87 58q-19 25 -19 62z" />
<glyph unicode="/" horiz-adv-x="1030" d="M8 162q-14 18 8 69q65 155 232 440.5t321.5 518t204.5 280.5q26 22 44 20q9 -1 18 -5q43 -20 90.5 -62.5t81.5 -85.5q34 -39 14 -80q-65 -119 -341.5 -556t-406.5 -676q-19 -36 -59 -21q-119 48 -207 158z" />
<glyph unicode="0" horiz-adv-x="1161" d="M61 588q0 222 63 431t168 339.5t220 130.5q104 0 227.5 -32t188.5 -73q31 -20 52.5 -38.5t48 -56.5t41.5 -84t23.5 -121t2.5 -169q-14 -229 -84 -442.5t-173 -347t-208 -135.5q-107 -1 -225.5 27t-180.5 69q-164 107 -164 502zM481.5 433q-0.5 -41 4.5 -63t14 -22 q23 0 56 103q2 7 3 10q25 73 103 495q8 41 6.5 103t-11.5 63q-6 1 -12 -2.5t-11 -10.5t-9 -14t-7.5 -17t-5 -16t-4.5 -15l-2 -9q-55 -189 -77 -286.5t-40 -227.5q-7 -50 -7.5 -91z" />
<glyph unicode="1" horiz-adv-x="765" d="M1 992q2 6 5.5 16t14 18.5t26.5 17.5q38 21 78.5 67.5t69.5 91.5t59 102.5t40.5 81.5t20.5 47q17 39 56 39q61 0 141.5 -17.5t128.5 -48.5q68 -42 61 -82q-34 -206 -80.5 -571t-74.5 -693q-3 -43 -47 -43q-34 1 -73.5 16.5t-84 46t-66.5 47.5t-60 49q-8 6 -11 9 q-13 10 -21 33t-8 45q0 162 53 557q-190 88 -213 121q-6 13 -8 17t-5.5 15.5t-1.5 17.5z" />
<glyph unicode="2" horiz-adv-x="1093" d="M2 254q0 27 16 53v2q37 77 117.5 181t158.5 189.5t156.5 181t110.5 155.5q9 17 1 27.5t-36 11.5q-33 2 -111 -19t-130 -45q-19 -9 -35 -9.5t-28.5 7.5t-20 15t-17.5 20l-88 219q-7 23 -8 38t6.5 27t18.5 20t34 20q94 49 219.5 80.5t196.5 35.5q94 6 236.5 -77.5 t212.5 -178.5q8 -10 11.5 -40t-2 -76t-22.5 -88q-24 -69 -77 -146.5t-106.5 -136t-125.5 -140.5t-117 -143q-8 -9 -6.5 -20t11.5 -15q118 -4 149 -4q127 -2 188 -34q11 -7 22 -22t24.5 -45t23 -52.5t27.5 -70.5t28 -73q20 -46 8.5 -82t-53.5 -45q-12 -2 -67.5 8.5 t-149.5 24.5t-182 17q-65 2 -119 -1t-108 -1q-69 -11 -94.5 -5t-59.5 35l-28 20q-28 20 -56 41.5t-59.5 48.5t-51 51.5t-18.5 39.5z" />
<glyph unicode="3" horiz-adv-x="1009" d="M2 319q-5 49 53 68q21 3 32.5 5t30.5 -4.5t29 -11t28 -13.5t28 -13q93 -42 184 -10.5t119 125.5q13 44 -4.5 83t-50.5 52q-16 3 -23 1.5t-25 -7.5t-30 -8q-8 -1 -13.5 1t-7.5 4.5t-6 10t-6 10.5q-2 0 -2 2q-9 8 -36 53.5t-32 51.5q-8 10 -12 16t-9 17t-2.5 19.5 t11.5 14.5q14 9 46 28.5t48 30.5t43.5 34t46.5 46t42.5 61t45.5 85q-50 4 -81 4q-68 1 -119.5 -10t-87.5 -24t-56 -15q-27 2 -42.5 8.5t-20.5 13t-16 24.5t-23 32q-15 17 -43 87.5t-39 137.5q-4 25 10 44t37 22q25 3 115.5 21.5t206 34.5t252.5 22q49 2 85 -11.5t64.5 -36.5 t30.5 -24q30 -15 79 -66t81 -92q15 -22 -10 -102.5t-64 -122.5q-79 -117 -125.5 -180.5t-81.5 -92.5l-2 -2q44 -18 75 -33t59.5 -34t45.5 -40t30.5 -47.5t18.5 -60t4.5 -74.5t-6.5 -94q-11 -96 -82 -187t-171.5 -146.5t-196.5 -55.5q-114 0 -191 37t-143 111 q-47 53 -82.5 112.5t-38.5 87.5z" />
<glyph unicode="4" horiz-adv-x="1097" d="M0 588q0 20 10 37q67 170 216.5 427t289.5 396q13 13 30.5 16t29 0.5t31 -10t24.5 -8.5l4 -2q57 -11 131 -42t108 -56l10.5 -7t9.5 -6.5l8 -6t7 -6.5t5.5 -7t3.5 -8t1 -9.5t-1 -11.5q-70 -419 -87 -530q72 3 113 -2q27 5 55 -27q16 -18 47 -89t31 -110q0 -26 -11 -40.5 t-28 -12.5q-63 3 -245 -10q-33 -280 -41 -414q-2 -24 -14.5 -37.5t-32.5 -5.5q-195 87 -279 191q-20 26 -20 67q0 76 6 170q-151 -13 -246 -24q-34 -4 -58 10.5t-34 32.5q-12 19 -33.5 48.5t-31 48.5t-9.5 38zM313 692l123 21q17 155 33 268q-57 -81 -100.5 -164.5 t-55.5 -124.5z" />
<glyph unicode="5" horiz-adv-x="1128" d="M49 330q-26 34 53 59q22 7 60.5 -5.5t81 -22.5t123.5 6q65 15 124 50t97 79q27 35 23.5 61t-34.5 44.5t-66 28t-71 11.5q-39 -2 -89.5 -12.5t-82 -17.5t-61.5 -5.5t-45 17.5q-21 21 -21 67q2 116 33 395v7q1 17 -42 65.5t-60 91.5q-9 24 4.5 53t34.5 35q27 7 145 41.5 t174.5 49t160 32.5t197.5 23q47 3 92 -3t64 -18q37 -26 85 -142.5t34 -156.5q-4 -13 -32.5 -26t-43.5 -13q-256 0 -442 -59q-29 -55 -33 -221q50 9 76.5 12.5t75 1t86.5 -17.5q46 -15 82.5 -31t72 -36.5t60.5 -44.5t46 -54.5t29 -66t11 -80t-9 -95.5q-38 -198 -176 -319 t-317 -121q-77 0 -142 17t-104 35.5t-85 65t-63 69t-60 84.5q-18 25 -27 38z" />
<glyph unicode="6" horiz-adv-x="1077" d="M63 569q1 2 3 4q6 134 36.5 252t73.5 203t100.5 156.5t113.5 118t117.5 82t106.5 53.5t86 28q4 1 15.5 5t17 5t16 -1.5t21.5 -10.5q21 -15 55 -73t37 -82q7 -26 1.5 -42t-38.5 -40q-112 -85 -202 -190t-109 -163q31 33 85 58t108 10q120 -33 192 -85.5t91.5 -109 t24.5 -120.5t-9 -119v-4q-9 -74 -50.5 -161t-102 -161.5t-141 -124.5t-157.5 -49q-111 1 -246.5 67.5t-181.5 123.5q-46 56 -58.5 183.5t-5.5 186.5zM416.5 399q12.5 -58 39.5 -80t62 -12q45 12 67.5 44t51.5 128q14 48 -7 103t-61 59q-8 0 -28 4q-37 -4 -67.5 -24.5 t-43.5 -45.5q-4 -6 -8 -18q-18 -100 -5.5 -158z" />
<glyph unicode="7" horiz-adv-x="1056" d="M43 1352q-4 25 10 43.5t37 21.5q1 0 44 6t59.5 8l66 8t81.5 9t86 7.5t99.5 6.5t103 4t113.5 2q3 0 26 1t43 0.5t43.5 -1.5t39.5 -5.5t20 -12.5q4 -7 33 -41.5t59 -83.5t46 -108v-9q8 -32 -9 -67q-292 -542 -471 -1106q-11 -39 -59 -21q-62 25 -133 87t-119 128 q-5 6 -5.5 15.5t1.5 17t6.5 20t5.5 17.5q105 340 398 823q-49 -2 -206.5 -19.5t-215.5 -15.5q-23 2 -36.5 4.5t-25 10t-16 12.5t-17 21t-20.5 26q-19 21 -48.5 77.5t-39.5 113.5z" />
<glyph unicode="8" horiz-adv-x="1171" d="M6 393q18 109 85.5 208.5t184.5 176.5h5q-119 73 -167.5 123.5t-45.5 112.5q5 97 39 177t84.5 132t117.5 90t132 56t132 24q63 0 119 -20q140 -49 229.5 -96.5t131.5 -110.5q32 -49 16 -146q-13 -83 -80 -173t-166 -169q149 -67 220 -132t65 -146q-10 -120 -68.5 -218.5 t-143 -158t-176 -92.5t-177.5 -35q-63 0 -119 20q-136 48 -247.5 108.5t-153.5 123.5q-33 50 -17 145zM391 461q0 -30 43.5 -47.5t81.5 -14.5q81 8 102 19q34 18 31 63q-1 27 -52 76t-69 57q-4 0 -6 2q-55 -29 -93 -77.5t-38 -77.5zM461 1004q1 -14 13.5 -25t25.5 -16 t29 -9.5t18 -5.5q0 -2 4 -2q82 55 82 119q0 48 -72 41q-107 -11 -100 -102z" />
<glyph unicode="9" horiz-adv-x="1165" d="M42.5 918.5q0.5 32.5 4.5 70.5q8 80 58.5 169t121 160.5t158.5 118.5t166 46q113 -1 272.5 -70t202.5 -123q46 -57 64 -185.5t12 -180.5q-3 -124 -47.5 -250.5t-110 -226.5t-146.5 -190t-151 -148.5t-129 -94.5q-12 -7 -20 -10t-21 -1t-28 13l-16.5 11t-24 16.5t-26 18.5 t-27 20.5t-23 20t-18 19.5t-7.5 15q-4 28 1 39.5t36 42.5q91 89 154 186.5t82 155.5q-39 -8 -102 -15.5t-87 -2.5q-72 13 -129 37t-94 52t-63 65t-39 71.5t-18.5 76t-5 74zM451 973q-14 -47 10.5 -106.5t64.5 -63.5q24 -4 37 -4q39 5 71.5 20t43.5 37l8 16q30 154 -9 225 t-110 56q-43 -9 -64 -44t-52 -136z" />
<glyph unicode=":" horiz-adv-x="524" d="M41 109q0 86 25 192q9 35 45 35q152 0 221 -45q20 -13 35.5 -41.5t11.5 -50.5q-18 -112 -39 -187q-7 -22 -15 -30.5t-28 -8.5q-96 0 -150.5 16t-87.5 58q-18 24 -18 62zM82 743q0 91 24 193q9 35 46 35q152 0 221 -45q20 -13 35.5 -41.5t11.5 -50.5q-18 -112 -39 -187 q-7 -22 -15 -30.5t-28 -8.5q-96 0 -150.5 16t-87.5 58q-18 24 -18 61z" />
<glyph unicode=";" horiz-adv-x="524" d="M41 109q0 86 25 192q9 35 45 35q152 0 221 -45q20 -13 35.5 -41.5t11.5 -50.5q-18 -112 -39 -187q-5 -15 -8 -18q-25 -81 -86 -187q-21 -35 -48 -42.5t-63 8.5q-25 9 -34.5 23t-6.5 38q3 9 26 66t34 88q-60 15 -95 59q-18 24 -18 62zM82 743q0 91 24 193q9 35 46 35 q152 0 221 -45q20 -13 35.5 -41.5t11.5 -50.5q-18 -112 -39 -187q-7 -22 -15 -30.5t-28 -8.5q-96 0 -150.5 16t-87.5 58q-18 24 -18 61z" />
<glyph unicode="&#x3c;" horiz-adv-x="954" d="M2 483q2 14 21 33q26 30 90 90q1 1 131.5 112t245 205.5t194.5 155.5q11 10 33 7t41 -19q37 -32 74.5 -82.5t39.5 -69.5q0 -29 -22 -51q-43 -39 -122.5 -103t-195.5 -154t-159 -124q163 -111 456 -274q23 -13 23 -51q-1 -17 -48.5 -65.5t-98.5 -92.5q-20 -17 -41.5 -20 t-32.5 8q-80 67 -188 150t-213.5 160t-125.5 93q-22 15 -35.5 24.5t-32 24t-27 25.5t-7.5 18z" />
<glyph unicode="=" horiz-adv-x="1296" d="M41 487q0 24 15 40t28 18q175 15 532.5 36.5t440.5 16.5q26 5 51 -23q20 -23 56 -88.5t36 -103.5q0 -26 -11 -40.5t-28 -12.5q-88 4 -453.5 -14.5t-459.5 -28.5q-34 -4 -58 10.5t-34 32.5q-14 23 -44 55t-50.5 57.5t-20.5 44.5zM61 883q0 24 15 40.5t28 16.5 q64 -1 481.5 29t485.5 26q27 5 51 -22q20 -23 56 -89t36 -104q0 -26 -10.5 -40.5t-27.5 -12.5q-87 4 -449.5 -15t-458.5 -30q-34 -4 -58 10.5t-34 32.5q-14 23 -44 55.5t-50.5 58t-20.5 44.5z" />
<glyph unicode="&#x3e;" horiz-adv-x="954" d="M0 150q0 28 23 51q42 38 120.5 85t186 105t157.5 88q-61 48 -144.5 110.5t-168 124t-111.5 81.5q-22 17 -22 51q1 18 44.5 71t82.5 87q20 17 41.5 20t32.5 -8q129 -109 303 -250.5t243 -194.5q23 -16 36 -25t32 -23.5t27.5 -25.5t7.5 -18q-7 -29 -62 -61q-9 -7 -49 -41 q-42 -35 -263.5 -185.5t-313.5 -220.5q-11 -10 -33 -7t-41 20q-38 33 -83 90.5t-46 75.5z" />
<glyph unicode="?" horiz-adv-x="1099" d="M46 1065.5q-7 33.5 3 79.5q37 136 150 239.5t231 106.5q107 3 302.5 -62t258.5 -139q17 -19 35.5 -88.5t7.5 -128.5q-2 -70 -27.5 -124t-66.5 -91t-84 -64.5t-93.5 -62t-80.5 -67.5q-37 -49 -47 -70q-22 -22 -42 -30.5t-52 -4.5q-109 14 -156 57q-13 12 -19 43.5t-1 57.5 q12 68 41.5 114t62.5 68t64.5 39.5t55 42.5t27.5 63q9 39 -20.5 68t-73.5 31q-51 1 -99 -55.5t-61 -118.5q-6 -27 -35.5 -43t-64.5 -14.5t-55 18.5l-139 88q-15 14 -22 47.5zM281 219q0 -41 22 -69q97 -125 268 -125q23 0 32 10t18 35q14 50 45 252q4 25 -14.5 57.5 t-41.5 46.5q-77 51 -250 51q-42 0 -51 -39q-28 -118 -28 -219z" />
<glyph unicode="@" horiz-adv-x="1607" d="M61 670q0 141 40 266t101.5 211t137.5 152t145.5 100.5t128.5 44.5q158 28 410 -53q16 -5 56.5 -17t64.5 -20t66 -24t69.5 -31t64.5 -40t62 -52t52 -66t43.5 -82.5t28 -100.5t13.5 -122q2 -59 -21.5 -143.5t-63.5 -167t-104.5 -140t-135.5 -57.5q-168 8 -265.5 62.5 t-119.5 154.5q-32 -53 -94.5 -107t-110.5 -47q-38 6 -67 20.5t-45.5 38.5t-27 47t-14 56t-4.5 54t-0.5 54t0.5 44q-1 52 23 116.5t66 123t109.5 93.5t143.5 25q82 -10 159.5 -34t100.5 -52q10 -12 10 -74q0 -23 -4 -87.5t-4 -100.5q0 -82 15.5 -138t46.5 -63l14 -2 q49 42 75.5 140t26.5 188q0 80 -30.5 147.5t-77 110t-104.5 72.5t-112 42.5t-100 12.5q-149 0 -259 -75.5t-167 -208t-57 -304.5q0 -109 57.5 -206.5t156 -156.5t210.5 -59q74 0 125 31q3 2 14 10t17 12t17.5 8t23.5 5q32 3 77 -23q21 -10 45 -30t54 -48t45 -41 q26 -28 17 -54.5t-38 -41.5q-75 -51 -147 -69.5t-154 -18.5q-101 0 -303.5 63.5t-269.5 108.5q-37 24 -72.5 63.5t-74 103.5t-62 162t-23.5 214zM750.5 691q-0.5 -32 7.5 -40q5 -4 19 11t34 41t29 36v2q1 9 3.5 44t2.5 51q0 14 -11 18t-22 -2q-22 -10 -32 -26.5t-23 -73.5 q-7 -29 -7.5 -61z" />
<glyph unicode="A" horiz-adv-x="1212" d="M0 557q0 29 29 29q22 -2 48.5 -2t59.5 2q57 242 145.5 476.5t168.5 346.5q17 28 49 21q19 -6 78 -22.5t88 -25.5q0 25 2 35q4 37 45 37q49 0 141.5 -16t132.5 -31q24 -9 34 -21t13 -36q1 -12 7 -145.5t19.5 -341t35.5 -408.5q11 -103 24 -200t20.5 -149.5t8.5 -60.5 q1 -4 1 -8q0 -13 -9 -23q-11 -12 -33 -12q-271 0 -342 66q-24 21 -47 221q-158 -17 -240 -21q-7 -86 -7 -166q0 -27 1 -53q0 -47 -41 -47q-98 0 -192.5 35t-137.5 86q-20 23 -20 63q0 60 10 152q-35 56 -63.5 122.5t-28.5 96.5zM520 604l170 12q-16 236 -22 439q0 25 -17 28 h-4q-10 0 -16 -14q-67 -203 -111 -465z" />
<glyph unicode="B" d="M70 1237q-8 22 -8 39q0 26 18 39q56 44 214 99.5t327 55.5q86 0 250.5 -57t195.5 -88q59 -55 59 -168q0 -135 -99.5 -243.5t-235.5 -145.5v-14q118 -15 213 -51.5t114 -73.5q25 -37 25 -113q0 -150 -82 -272.5t-223 -192t-310 -69.5q-138 0 -253 37t-171 108 q-18 21 -18 63q0 155 21.5 404.5t52.5 470.5q-24 37 -54 94.5t-36 77.5zM473 1118l49 -12q25 -10 34.5 -21.5t6.5 -35.5q-1 -4 -22 -172q69 22 120.5 77t51.5 111q0 82 -105 82q-50 0 -135 -29zM496 338h36q74 0 132.5 52.5t58.5 119.5q0 72 -113 72q-40 0 -98 -15 q-12 -150 -16 -229z" />
<glyph unicode="C" d="M61 588q0 255 67 453t193 311t293 118q21 1 42 1q240 0 368 -76q7 -4 30 -16.5t34 -19t29 -21.5t26.5 -29.5t14.5 -36.5q4 -16 4 -35q0 -7 -1 -14q-12 -130 -32 -198q-29 -97 -87 -181q-26 -39 -46 -53q-34 -24 -83 -24q-33 0 -73 11q-74 14 -88 46q-5 12 -5 28 q0 28 15 70q15 51 15 94q0 38 -12 69q-25 66 -93 66q-29 0 -52.5 -9.5t-33.5 -19.5q-37 -39 -73 -196.5t-36 -390.5q0 -43 6 -77t14 -55.5t22.5 -36.5t26 -22t30.5 -11t29 -4.5t29 -0.5h7q55 0 164 88q8 6 32.5 33t47.5 47.5t50.5 37.5t54 10t46.5 -42l60 -154 q10 -33 10 -63q0 -59 -39 -105q-34 -42 -57 -67t-63.5 -58t-80.5 -50.5t-100 -30.5t-131 -13q-574 0 -574 627z" />
<glyph unicode="D" horiz-adv-x="1269" d="M63 268q1 15 7 87t7.5 88.5l7 77t8 81.5t8.5 71t10 76t10.5 65.5t13.5 71.5t15 64v8q1 14 1 28q0 70 -22 134q-26 76 -55 111q-16 20 -1 47.5t36 40.5q76 49 180.5 80.5t176 41.5t128.5 11q60 0 121 -6l2 2q36 -2 67 -8t61.5 -18t46.5 -19t50 -25.5t43 -23.5 q77 -40 123.5 -96.5t73 -160.5t26.5 -263q0 -143 -37.5 -272t-100 -224.5t-144.5 -169t-171.5 -116t-179.5 -54.5h-20q-51 -8 -101 -8q-79 0 -156 20q-127 33 -196 117q-18 19 -30 65q-9 36 -10 63q0 7 1 13zM496 393q0 -38 6 -45q7 -7 29 -7q9 0 20 1q24 5 47 14 q76 26 137.5 159t61.5 368q0 208 -146 231q-98 -3 -141 -10q2 0 10 -4q45 -34 45 -131q0 -2 -1 -6.5t-1 -6.5q-6 -50 -30 -239.5t-37 -323.5z" />
<glyph unicode="E" horiz-adv-x="1124" d="M61 244q13 423 111 805q0 4 2 6l-6 6q-9 11 -20.5 41.5t-26 75t-19.5 57.5q-9 22 8 55t37 51q176 154 793 154q113 0 158 -29q22 -14 24 -66v-19q0 -43 -7 -83q-9 -50 -21 -81q-5 -14 -26 -33t-34 -19q-43 0 -131 1q-59 1 -96 1q-19 -1 -32 -1q-40 0 -102.5 -2.5 t-111 -9.5t-96.5 -19h13q37 0 61 -15q45 -32 45 -69q0 -2 -1 -6.5t-1 -6.5q-3 -16 -12.5 -65t-14.5 -78q137 26 232 26q75 0 124 -16q25 -8 29 -56q1 -15 1 -31q1 -33 -5 -65q-8 -48 -21 -81q-5 -14 -25.5 -32.5t-33.5 -18.5q-233 0 -352 -37q-21 -129 -31 -211 q0 -10 -2 -23.5t-2.5 -18t2 -12t11.5 -6.5t26 0q101 28 230.5 41t217.5 13q63 0 72 -33q13 -36 16 -66.5t0.5 -45.5t-11 -43.5t-11.5 -41.5q-11 -41 -27.5 -61.5t-40.5 -32.5q-24 -13 -77 -18t-131.5 -9t-135.5 -14q-104 -16 -198 -17h-6q-90 1 -172 29q-84 30 -134 88 q-5 5 -16.5 33t-11.5 35q-11 29 -11 74z" />
<glyph unicode="F" horiz-adv-x="1107" d="M63 223q63 524 109 783q-16 23 -41.5 77.5t-38.5 90.5q-10 24 3 62.5t32 47.5q149 72 354.5 119.5t407.5 58.5q23 1 44 1q78 0 111 -21q34 -24 53 -123q10 -54 10 -91q0 -32 -7 -52q-4 -12 -32.5 -25.5t-43.5 -13.5q-324 0 -553 -74l21 -10q25 -9 52 -51q24 -37 24 -60 q0 -3 -1 -6l-18 -105q13 3 54.5 14.5t60 16t55 12.5t58.5 9.5t51 2.5t51.5 -4.5t42.5 -15.5q26 -14 41 -104q8 -45 7.5 -77.5t-7.5 -53.5q-5 -14 -26 -32.5t-34 -18.5q-94 0 -203 -16.5t-190 -41.5q-20 -173 -49 -514q-3 -43 -47 -43q-63 0 -135 36.5t-118.5 77t-76.5 77.5 q-22 28 -22 56q0 6 1 11z" />
<glyph unicode="G" horiz-adv-x="1234" d="M61 649q0 188 42 345.5t115.5 264.5t175 167.5t220.5 64.5q15 1 29 1q101 0 195 -24q109 -28 186 -73q42 -24 63 -72q15 -35 15 -72q0 -14 -2 -28q-9 -69 -23.5 -109.5t-54.5 -99.5q-27 -40 -48 -55q-34 -25 -81 -25q-26 0 -57 8q-90 23 -90 84q0 20 10 45q7 17 7 34 q0 21 -11 42q-21 37 -80 37q-15 0 -30.5 -9t-24.5 -18t-19.5 -21.5t-11.5 -13.5q-19 -20 -29 -32t-31.5 -54t-33.5 -90.5t-22.5 -137t-10.5 -198.5q0 -254 182 -254q43 0 88.5 43t75.5 119q1 2 2.5 6.5t2.5 7t2 6.5t1.5 6.5t0 5.5t-1.5 6t-3 5q-3 4 -25.5 4t-54 2t-51.5 11 q-31 14 -57 65.5t-36 98.5t-1 53q37 26 128 29h25q78 0 159 -13q93 -15 172.5 -45t96.5 -64q4 -13 6 -27q1 -9 1 -21v-12q-1 -18 -1.5 -29.5t-4.5 -35.5t-5 -30.5t-7 -32.5l-5 -27q-17 -79 -58.5 -166.5t-101 -168t-143 -133t-170.5 -52.5q-132 0 -262 33t-189 94 q-73 75 -118.5 225.5t-45.5 329.5z" />
<glyph unicode="H" horiz-adv-x="1390" d="M61 817q0 31 29 31h78q22 196 47.5 368.5t38.5 221.5q13 39 51 39q53 0 163.5 -17.5t149.5 -32.5q45 -16 45 -50q0 -5 -1 -11q-41 -239 -72 -500l248 17q53 448 82 555q9 39 51 39q52 0 163 -17.5t150 -32.5q43 -17 43 -53v-8q-43 -242 -85 -631t-42 -706q0 -43 -49 -43 q-98 0 -205 41t-143 88q-21 27 -21 67q0 125 21 379q-108 -12 -244 -18q-24 -298 -24 -514q0 -43 -48 -43q-99 0 -205.5 40.5t-144.5 88.5q-20 26 -20 67q0 184 28 455q-34 50 -59 102.5t-25 77.5z" />
<glyph unicode="I" horiz-adv-x="669" d="M61 182q0 233 55 692t85 564q9 39 49 39q53 0 164 -17.5t149 -32.5q44 -16 44 -50q0 -5 -1 -11q-43 -259 -85 -640.5t-42 -696.5q0 -43 -47 -43q-99 0 -205.5 40.5t-144.5 88.5q-21 27 -21 67z" />
<glyph unicode="J" horiz-adv-x="1239" d="M2 328q5 25 16 52.5t32.5 63t35 55.5t47 67t43.5 61q9 14 15.5 20t23.5 12t47.5 -1t75.5 -25q74 -14 93 -51q9 -18 9 -43q0 -27 -10 -62q-8 -41 -9.5 -66.5t9 -40.5t23 -21t32.5 -9q34 0 60.5 15t41 31.5t28 54.5t17.5 55.5t13 63.5q1 6 2 9l15 68q0 8 2 12 q34 203 52.5 364.5t37.5 463.5q3 43 47 43q104 0 211 -33t143 -78q21 -28 21 -60v-8q-13 -176 -39 -432q-12 -158 -33 -282.5t-49.5 -215.5t-69.5 -158.5t-84 -110.5t-103 -71t-118.5 -42t-136.5 -23q-23 -3 -46 -3q-95 0 -203 42q-134 52 -219 133q-74 72 -74 133q0 9 1 17 z" />
<glyph unicode="K" horiz-adv-x="1337" d="M61 831q0 31 31 31h80q54 468 86 576q9 39 49 39q53 0 165 -17.5t151 -32.5q42 -16 42 -50q0 -5 -1 -11q-30 -169 -68 -485l96 8q62 130 154 308t135 253q16 28 43 28q9 0 20 -3q52 -19 137 -71.5t132 -90.5q23 -17 23 -41q0 -13 -7 -29q-21 -42 -148 -234t-206 -302 q53 -123 156 -266.5t163 -192.5q21 -18 21 -39q0 -23 -25 -49q-54 -60 -134.5 -117t-139.5 -57q-49 0 -121.5 87t-137 210t-104.5 241l-94 -6q-22 -308 -22 -489q0 -43 -48 -43q-99 0 -205.5 40.5t-144.5 88.5q-20 26 -20 67q0 165 26 441q-34 60 -59 120.5t-25 87.5z" />
<glyph unicode="L" horiz-adv-x="1042" d="M61 244q0 279 43.5 690.5t94.5 523.5q6 12 9.5 18t15 13.5t26.5 7.5q56 0 165.5 -30.5t147.5 -59.5q45 -32 45 -70q0 -2 -1 -6t-1 -6q-25 -135 -57.5 -379t-54.5 -471v-10q0 -49 49 -49h6q114 6 366 30q3 0 9.5 1.5t9.5 1.5q29 0 43 -25q65 -116 65 -287 q-1 -41 -12.5 -59.5t-34.5 -30.5q-43 -24 -145.5 -41.5t-222.5 -17.5q-169 0 -315.5 41t-231.5 135q-8 8 -8 26q-11 29 -11 54z" />
<glyph unicode="M" horiz-adv-x="1673" d="M63 182q10 244 60.5 687.5t75.5 537.5q13 39 51 39q53 0 163.5 -17t149.5 -32q38 -16 43 -37q8 -14 26 -57t30 -66q100 -294 165 -508q36 79 252 508q21 45 66.5 111.5t66.5 81.5q14 18 41 18q52 0 163.5 -17t150.5 -32q43 -17 43 -54v-8q-44 -249 -85.5 -622.5 t-41.5 -689.5q0 -43 -49 -43q-97 0 -196 40.5t-136 88.5q-21 27 -21 67q0 147 13 344v7q0 27 7 61q8 38 22 85t18 66v7q-12 -18 -23.5 -38t-18 -33t-21 -44t-23.5 -49q-3 -7 -14 -31t-17.5 -37t-18 -36.5t-20.5 -39t-19.5 -33t-21 -30.5t-20.5 -21q-11 -18 -43 -18 q-18 -2 -44 2t-44.5 9t-44 13t-29.5 9q-44 12 -57 45q-5 13 -76 168q-19 36 -43 107.5t-33 94.5q-4 -42 -6 -126t-6 -130q-21 -241 -31 -499q-3 -43 -47 -43q-99 0 -198 39.5t-138 87.5q-21 27 -21 59v8z" />
<glyph unicode="N" horiz-adv-x="1259" d="M61 242q5 232 58.5 640t81.5 515q13 39 51 39q63 0 148 -16.5t130 -33.5q46 -19 43 -53q11 -34 32 -147.5t30 -153.5l53 -291q15 174 20.5 231.5t19.5 170t29.5 166.5t37.5 86q1 2 5 8.5t5.5 9t6 7.5t9 7.5t11 4.5t14.5 2q45 0 153 -28t160 -48q22 -8 31 -37q7 -22 7 -43 q0 -7 -1 -14q-129 -734 -149 -1209q-3 -43 -50 -43q-96 0 -203 45.5t-145 94.5q-13 16 -18 32q-2 7 -29 107t-49 166q-11 30 -20.5 71t-19.5 94t-17 83q-35 -387 -35 -685q0 -43 -47 -43q-201 0 -289 95q-36 38 -50 87.5t-14 82.5z" />
<glyph unicode="O" horiz-adv-x="1267" d="M61 588q0 242 71 443.5t193.5 317t268.5 115.5q108 0 217 -25t172 -65q28 -18 55.5 -45.5t59 -75t54.5 -104.5t38.5 -139.5t15.5 -175.5q0 -243 -70 -444.5t-192 -317t-268 -115.5q-111 0 -220 24t-169 64q-28 18 -56 45.5t-59.5 75t-55.5 105t-39.5 140.5t-15.5 177z M477 535q0 -261 123 -261q49 0 74 25q40 36 80.5 194t40.5 390q0 79 -10 133t-28.5 81t-38.5 37.5t-46 10.5q-53 0 -76 -23q-39 -41 -79 -199t-40 -388z" />
<glyph unicode="P" horiz-adv-x="1146" d="M70 1227q-8 22 -8 39q0 26 18 39q22 17 71 42.5t120.5 54t166 48.5t183.5 20q30 0 214 -58t218 -83q25 -20 59.5 -113t34.5 -161q0 -72 -15 -143t-46.5 -138.5t-76.5 -123t-109.5 -97.5t-141.5 -61q-56 -14 -94 -16h-11q-31 0 -53 10q-26 12 -38 23.5t-31 36.5q-5 6 -7 9 q-10 10 -18 20q-25 -258 -35 -536q-3 -43 -47 -43q-98 0 -194.5 40t-135.5 89q-20 26 -20 68q0 230 29.5 493.5t58.5 374.5q-23 34 -53.5 89.5t-38.5 76.5zM485 1112q2 0 5.5 -1t5.5 -1q28 -11 48 -39q14 -21 15 -51q0 -11 -2 -23q-30 -210 -37 -266q99 14 174.5 84.5 t75.5 169.5q0 62 -42.5 108t-119.5 46q-50 0 -123 -27z" />
<glyph unicode="Q" horiz-adv-x="1241" d="M63 690q8 158 55.5 302t119 247t163.5 164t187 61q97 0 214.5 -27t194.5 -57t130 -172.5t53 -373.5q0 -216 -65.5 -402t-168.5 -301q12 -28 24.5 -52.5t28.5 -50t26 -40t31 -44.5t29 -42q18 -23 17.5 -56.5t-21.5 -56.5q-47 -52 -132 -101.5t-146 -49.5q-37 0 -69 29.5 t-57.5 83.5t-45 115.5t-37.5 141.5q-91 9 -177.5 30.5t-135.5 47.5q-85 45 -157 224q-62 156 -62 331q0 24 1 49zM471 596q0 -268 123 -268q50 0 74 24q37 34 77 179t48 352q1 22 1 41q0 52 -6 91q-8 53 -27 79t-41 35.5t-54 9.5q-53 0 -76 -23q-119 -125 -119 -520z" />
<glyph unicode="R" horiz-adv-x="1187" d="M70 1180q-8 21 -8 38q0 25 18 39q24 19 75.5 49t128 66.5t171 62t176.5 25.5q62 0 187 -49.5t190 -85.5q38 -21 69 -89.5t31 -139.5q0 -187 -56.5 -312.5t-185.5 -187.5q98 -129 260 -277q20 -18 20 -43q0 -26 -22 -61q-39 -61 -124 -135q-84 -74 -142 -74h-2 q-45 1 -114 99t-130 225t-106 252q-21 -195 -35 -523q-3 -43 -47 -43q-95 0 -183 43t-130 95q-21 27 -21 67q5 226 28.5 453t45.5 340q0 1 -1 2t-1 2q-17 17 -49 75.5t-43 86.5zM451 1075q4 0 34 -6q31 -12 53 -40q17 -21 17 -52q0 -10 -2 -21q-32 -222 -35 -251 q95 18 167.5 98.5t72.5 181.5q0 61 -43 104.5t-121 43.5q-64 0 -143 -58z" />
<glyph unicode="S" horiz-adv-x="1103" d="M23 391v12q0 50 8 69q9 21 30 28q25 8 60 -8.5t76.5 -48t52.5 -37.5q109 -58 225 -58q59 0 81 20q12 11 13 34q0 18 -8 42q-9 28 -42.5 50.5t-80 40t-101 37t-107 48.5t-95.5 68.5t-69.5 103.5t-26.5 146q0 111 49.5 213.5t127.5 172.5t173 111.5t186 41.5 q77 0 148 -13.5t112 -28.5t105 -42q64 -29 106 -77q36 -42 36 -92q0 -9 -1 -18q-1 -8 -4.5 -44t-5.5 -51.5t-9 -51t-15.5 -61t-24 -62t-35.5 -72.5q-1 -2 -6.5 -12.5t-10 -18.5t-13 -20t-16.5 -21t-20.5 -17t-25.5 -11q-15 -1 -18.5 -2.5t-21 2.5t-23.5 6t-25 8t-27 8 q-74 14 -90 52q-7 15 -6 35q0 29 14 69q16 58 16 98q0 26 -8 44q-18 46 -73 46q-71 0 -130.5 -56.5t-60.5 -131.5v-8q0 -61 28 -104q30 -46 78.5 -72t108 -46.5t119 -45t109.5 -59t81 -97t31 -150.5q0 -97 -33.5 -173.5t-90 -122t-125 -68.5t-144.5 -23q-71 0 -133.5 10 t-102.5 22t-85 36t-64.5 37.5t-56.5 40.5q-65 48 -101 131t-38 141z" />
<glyph unicode="T" horiz-adv-x="1200" d="M2 1386q-1 10 -1 18q-1 20 3 30q4 16 25 18q87 12 331 16l142 2q172 0 344 -8q15 -1 50.5 -2.5t65 -3t62.5 -4t55.5 -5.5t30.5 -7q33 -17 76 -102t71 -187q3 -12 3 -24q0 -20 -9 -38q-14 -28 -58 -28h-3q-5 0 -51.5 6t-101 11.5t-144 10.5t-176.5 5h10q105 -14 105 -134 q0 -14 -1 -30q-5 -60 -21.5 -197.5t-25.5 -273t-10 -328.5q0 -68 -21 -105q-20 -36 -57 -36h-2q-99 4 -190.5 43.5t-130.5 87.5q-21 27 -21 67q2 152 18 335.5t39 370t23 187.5q-134 0 -215 -8q-14 1 -26 3.5t-20 3.5t-17.5 7t-13 7.5t-13 11.5t-11.5 12t-13.5 16t-14.5 17 q-18 20 -49.5 94.5t-36.5 140.5z" />
<glyph unicode="U" horiz-adv-x="1337" d="M64 413q2 74 18 167l4 43v12q58 655 96 801q5 14 24.5 25.5t43.5 11.5q194 0 287 -39q17 -7 24.5 -11.5t18.5 -17t14 -34.5t0 -56q-7 -88 -48.5 -376.5t-41.5 -397.5q0 -3 -1 -11t-1 -14q1 -77 13 -117t30.5 -51.5t52.5 -11.5q113 0 147 237q0 10 3 19q16 130 35.5 325.5 t34 329.5t28.5 203q9 39 51 39q62 0 176 -21t158 -38q43 -17 43 -54v-8q-22 -299 -82 -733q-8 -83 -25 -164l-4 -33q-3 -19 -8 -26q-59 -232 -201 -338q-138 -104 -366 -103h-13q-96 1 -199.5 44t-182.5 96q-29 19 -50 39t-42 57.5t-30 84.5q-8 40 -8 100q1 10 1 21z" />
<glyph unicode="V" horiz-adv-x="1298" d="M63 1391q-3 23 22.5 53.5t59.5 30.5q97 0 205 -39.5t144 -87.5q22 -30 56 -321.5t56 -598.5q48 161 130.5 509.5t125.5 489.5q5 16 6 19.5t6 13.5t12 12.5t17 2.5q97 0 212 -45t159 -97q7 -8 9.5 -10.5t7 -10t5.5 -12.5t1 -13t-3 -17q-11 -35 -48.5 -159.5t-61.5 -200.5 t-64 -203.5t-70 -217.5t-65.5 -190t-65.5 -173.5t-55 -119.5q-11 -22 -34 -22q-7 0 -15 2q-16 -1 -36 -1q-72 0 -185 17h-12q-47 0 -140 38t-135 71q-41 30 -47 77q-2 22 -22.5 126.5t-55.5 297t-65 389.5q-47 296 -54 390z" />
<glyph unicode="W" horiz-adv-x="1566" d="M63 1386q0 27 18.5 58t51.5 31q94 0 204 -37.5t155 -79.5q22 -20 33 -301q2 -41 3 -62q5 -138 9 -379q24 69 76 281.5t71 257.5q9 20 19.5 32t17.5 17.5t21.5 5t19 -1.5t23.5 -6q5 -1 8 -2q114 -29 112 -145q0 -208 23 -471q2 0 2 2q41 138 109.5 429.5t105.5 411.5 q14 48 53 48q92 0 196 -52.5t152 -109.5q21 -24 21 -60q0 -11 -2 -24q-57 -324 -154.5 -683t-177.5 -540q-9 -20 -31 -34q-15 -9 -28 -9q-7 0 -13 2q-69 8 -169.5 38.5t-145.5 59.5q-12 8 -20 20.5t-11.5 23.5t-8.5 32t-9 35q-31 90 -60 406q-11 -4 -14 -7 q-24 -96 -80 -283.5t-90 -258.5q-9 -30 -26.5 -44.5t-32.5 -12.5t-27 1q-47 3 -113.5 32.5t-109.5 62.5q-32 24 -47 77q-46 174 -105 609q-30 221 -30 514q0 56 1 116z" />
<glyph unicode="X" horiz-adv-x="1224" d="M0 227q1 42 18 66q2 3 29.5 44.5t50.5 75.5t62 89.5t72 100.5t71.5 93t69.5 80q-143 240 -232 475q-13 35 -13 61q0 30 17 48q39 43 157 81t190 38q63 0 163 -418q146 267 236 385q11 16 41 30q20 10 36 9q8 0 15 -2q53 -20 117.5 -81t109.5 -130q14 -20 14 -61 q0 -46 -18 -70q-27 -39 -136 -164t-210 -234q117 -190 238 -501q13 -35 13 -61q0 -30 -17 -48q-46 -51 -146 -107.5t-162 -56.5q-40 0 -98 148.5t-110 347.5q-151 -299 -250 -457q-15 -25 -44 -25q-13 0 -28 5q-60 22 -131 71.5t-111 104.5q-14 20 -14 58v5z" />
<glyph unicode="Y" horiz-adv-x="1173" d="M63 1237q-2 11 -2 24q0 23 6 51q9 44 29 66q11 13 28 24t41 20t43.5 15.5t51.5 13.5t48.5 10.5t50 9.5t42.5 8q11 2 23 2q21 0 44 -6q37 -10 42 -41q21 -126 43 -326.5t37 -282.5q76 211 167.5 394.5t135.5 230.5q2 2 11 12t14.5 15.5t15 11t18.5 6.5q9 2 18 2 q23 0 50 -13q36 -18 89.5 -61.5t57.5 -46.5q40 -25 45 -63q1 -6 1 -12q0 -43 -31 -99q-123 -200 -283.5 -568.5t-220.5 -596.5q-5 -22 -22.5 -39.5t-45.5 -23.5q-7 -2 -14 -2q-23 0 -49 14l-209 102q-26 13 -40 48q-12 32 -12 61v7q2 31 7 52q26 74 110 264q-12 -1 -22 -1 q-45 0 -75 20q-36 25 -66 98q-128 317 -177 600z" />
<glyph unicode="Z" d="M23 281q3 44 43 81q79 100 309.5 319.5t425.5 377.5q-37 4 -125 4q-56 -2 -124 -2q-122 0 -282 6q-28 2 -44 8.5t-22.5 12.5t-19.5 25t-24 32q-16 17 -48.5 99t-43.5 149q-4 25 10 43.5t37 21.5q74 10 305 10q144 0 348 -4q73 -1 155 -18.5t107 -30.5q34 -17 79 -102.5 t73 -184.5q2 -7 2 -17q0 -17 -6 -37q-8 -34 -27 -56l-4 -6q-45 -48 -131.5 -121.5t-169.5 -140.5t-192.5 -169t-198.5 -204q-2 -2 -2 -4q118 26 281 26h34q181 -3 225 -26q52 -31 123 -285q10 -34 10 -59q0 -50 -41 -58h-6q-15 1 -56 7q-51 8 -157 19t-231 11q-55 0 -201 -7 q-113 -5 -174 -5h-31q-14 1 -26.5 5.5t-22 8t-20.5 14.5t-16.5 16t-16.5 21.5t-14.5 22t-15.5 26t-15 25.5l-8 13q-9 14 -13.5 22t-13 24.5t-13 29t-8 28.5t-3.5 29z" />
<glyph unicode="[" horiz-adv-x="940" d="M102 -133q0 262 45 832t74 663q9 29 51.5 63.5t67.5 34.5q155 0 184 -2q18 -1 51 -1.5t60 -1.5t51 -3q51 -3 99 -13t67 -22q36 -23 83 -110.5t44 -147.5q0 -15 -12.5 -25t-26.5 -8q-129 14 -336 21q-77 -675 -100 -1227q15 0 108 -6q12 -1 30 -1.5t26 -1t19.5 -2t17.5 -3 t13 -4t13 -6.5q38 -24 88 -105.5t47 -140.5q0 -14 -15.5 -24.5t-31.5 -10.5q-186 4 -348 16q-9 -3 -20 0q-92 20 -180 68t-148 100q-21 19 -21 68z" />
<glyph unicode="\" horiz-adv-x="1153" d="M70 1257q-20 41 14 80q34 43 81.5 85.5t90.5 62.5q5 2 9 3t7.5 2t7.5 0t6.5 -1t6.5 -2t5.5 -2.5t5 -3.5t4.5 -3.5t5 -3.5l4 -4q50 -48 204.5 -280.5t321.5 -518t232 -440.5q22 -51 8 -69q-88 -110 -206 -158q-41 -15 -60 21q-130 239 -406 676t-341 556z" />
<glyph unicode="]" horiz-adv-x="940" d="M-39 -78q0 15 12.5 25t26.5 8q124 -13 334 -21q31 260 61 606.5t41 620.5q-21 0 -108 6q-9 1 -26 1.5t-23.5 1t-17.5 1.5t-16.5 2t-12.5 3t-12.5 4.5t-10.5 5.5q-38 24 -88 105.5t-47 140.5q0 14 15.5 24t31.5 10q183 -4 346 -16q9 3 22 0q51 -11 123.5 -18.5t123 -16 t81.5 -26.5q21 -13 21 -68q0 -268 -45.5 -889.5t-73.5 -712.5q-9 -29 -51.5 -63.5t-67.5 -34.5q-156 0 -186 2q-18 1 -50.5 1.5t-59 1.5t-50.5 3q-51 3 -99 13t-67 22q-36 23 -83 110.5t-44 147.5z" />
<glyph unicode="^" horiz-adv-x="915" d="M70 977q-16 16 8 70q19 47 150.5 195.5t144.5 166.5q17 24 46.5 39.5t57.5 15.5q52 0 107 -55q5 -7 76.5 -100.5t117 -159.5t60.5 -102q24 -54 8 -70q-32 -33 -59 -67.5t-41 -47.5t-39 -22q-20 -8 -33.5 -3.5t-26.5 23.5q-15 21 -52 73.5t-69 96t-59 76.5 q-48 -60 -178 -246q-13 -19 -26.5 -23.5t-33.5 3.5q-16 6 -28.5 12.5t-27.5 20t-24.5 23t-35 36.5t-43.5 45z" />
<glyph unicode="_" horiz-adv-x="847" d="M-61 -309q0 24 15 40.5t28 16.5q65 -1 337 21t340 18q27 5 52 -23q13 -15 34 -83t21 -109q0 -26 -11 -40.5t-28 -12.5q-84 4 -295 -11t-328 -28q-34 -4 -58 10.5t-34 32.5q-73 123 -73 168z" />
<glyph unicode="`" horiz-adv-x="591" d="M117 1298q-24 24 0 60q32 40 71.5 80t53.5 41q33 6 53 -11q36 -30 79.5 -85.5t93.5 -126t71 -97.5q9 -5 10 -24.5t-12 -42.5q-8 -10 -11.5 -13.5t-11 -8.5t-9.5 -6t-18 -8t-26 -12q-53 -18 -92 21q-21 24 -64.5 64t-104 94t-83.5 75z" />
<glyph unicode="a" horiz-adv-x="1212" d="M0 557q0 29 29 29q22 -2 48.5 -2t59.5 2q57 242 145.5 476.5t168.5 346.5q17 28 49 21q19 -6 78 -22.5t88 -25.5q0 25 2 35q4 37 45 37q49 0 141.5 -16t132.5 -31q24 -9 34 -21t13 -36q1 -12 7 -145.5t19.5 -341t35.5 -408.5q11 -103 24 -200t20.5 -149.5t8.5 -60.5 q1 -4 1 -8q0 -13 -9 -23q-11 -12 -33 -12q-271 0 -342 66q-24 21 -47 221q-158 -17 -240 -21q-7 -86 -7 -166q0 -27 1 -53q0 -47 -41 -47q-98 0 -192.5 35t-137.5 86q-20 23 -20 63q0 60 10 152q-35 56 -63.5 122.5t-28.5 96.5zM520 604l170 12q-16 236 -22 439q0 25 -17 28 h-4q-10 0 -16 -14q-67 -203 -111 -465z" />
<glyph unicode="b" d="M70 1237q-8 22 -8 39q0 26 18 39q56 44 214 99.5t327 55.5q86 0 250.5 -57t195.5 -88q59 -55 59 -168q0 -135 -99.5 -243.5t-235.5 -145.5v-14q118 -15 213 -51.5t114 -73.5q25 -37 25 -113q0 -150 -82 -272.5t-223 -192t-310 -69.5q-138 0 -253 37t-171 108 q-18 21 -18 63q0 155 21.5 404.5t52.5 470.5q-24 37 -54 94.5t-36 77.5zM473 1118l49 -12q25 -10 34.5 -21.5t6.5 -35.5q-1 -4 -22 -172q69 22 120.5 77t51.5 111q0 82 -105 82q-50 0 -135 -29zM496 338h36q74 0 132.5 52.5t58.5 119.5q0 72 -113 72q-40 0 -98 -15 q-12 -150 -16 -229z" />
<glyph unicode="c" d="M61 588q0 255 67 453t193 311t293 118q21 1 42 1q240 0 368 -76q7 -4 30 -16.5t34 -19t29 -21.5t26.5 -29.5t14.5 -36.5q4 -16 4 -35q0 -7 -1 -14q-12 -130 -32 -198q-29 -97 -87 -181q-26 -39 -46 -53q-34 -24 -83 -24q-33 0 -73 11q-74 14 -88 46q-5 12 -5 28 q0 28 15 70q15 51 15 94q0 38 -12 69q-25 66 -93 66q-29 0 -52.5 -9.5t-33.5 -19.5q-37 -39 -73 -196.5t-36 -390.5q0 -43 6 -77t14 -55.5t22.5 -36.5t26 -22t30.5 -11t29 -4.5t29 -0.5h7q55 0 164 88q8 6 32.5 33t47.5 47.5t50.5 37.5t54 10t46.5 -42l60 -154 q10 -33 10 -63q0 -59 -39 -105q-34 -42 -57 -67t-63.5 -58t-80.5 -50.5t-100 -30.5t-131 -13q-574 0 -574 627z" />
<glyph unicode="d" horiz-adv-x="1269" d="M63 268q1 15 7 87t7.5 88.5l7 77t8 81.5t8.5 71t10 76t10.5 65.5t13.5 71.5t15 64v8q1 14 1 28q0 70 -22 134q-26 76 -55 111q-16 20 -1 47.5t36 40.5q76 49 180.5 80.5t176 41.5t128.5 11q60 0 121 -6l2 2q36 -2 67 -8t61.5 -18t46.5 -19t50 -25.5t43 -23.5 q77 -40 123.5 -96.5t73 -160.5t26.5 -263q0 -143 -37.5 -272t-100 -224.5t-144.5 -169t-171.5 -116t-179.5 -54.5h-20q-51 -8 -101 -8q-79 0 -156 20q-127 33 -196 117q-18 19 -30 65q-9 36 -10 63q0 7 1 13zM496 393q0 -38 6 -45q7 -7 29 -7q9 0 20 1q24 5 47 14 q76 26 137.5 159t61.5 368q0 208 -146 231q-98 -3 -141 -10q2 0 10 -4q45 -34 45 -131q0 -2 -1 -6.5t-1 -6.5q-6 -50 -30 -239.5t-37 -323.5z" />
<glyph unicode="e" horiz-adv-x="1124" d="M61 244q13 423 111 805q0 4 2 6l-6 6q-9 11 -20.5 41.5t-26 75t-19.5 57.5q-9 22 8 55t37 51q176 154 793 154q113 0 158 -29q22 -14 24 -66v-19q0 -43 -7 -83q-9 -50 -21 -81q-5 -14 -26 -33t-34 -19q-43 0 -131 1q-59 1 -96 1q-19 -1 -32 -1q-40 0 -102.5 -2.5 t-111 -9.5t-96.5 -19h13q37 0 61 -15q45 -32 45 -69q0 -2 -1 -6.5t-1 -6.5q-3 -16 -12.5 -65t-14.5 -78q137 26 232 26q75 0 124 -16q25 -8 29 -56q1 -15 1 -31q1 -33 -5 -65q-8 -48 -21 -81q-5 -14 -25.5 -32.5t-33.5 -18.5q-233 0 -352 -37q-21 -129 -31 -211 q0 -10 -2 -23.5t-2.5 -18t2 -12t11.5 -6.5t26 0q101 28 230.5 41t217.5 13q63 0 72 -33q13 -36 16 -66.5t0.5 -45.5t-11 -43.5t-11.5 -41.5q-11 -41 -27.5 -61.5t-40.5 -32.5q-24 -13 -77 -18t-131.5 -9t-135.5 -14q-104 -16 -198 -17h-6q-90 1 -172 29q-84 30 -134 88 q-5 5 -16.5 33t-11.5 35q-11 29 -11 74z" />
<glyph unicode="f" horiz-adv-x="1107" d="M63 223q63 524 109 783q-16 23 -41.5 77.5t-38.5 90.5q-10 24 3 62.5t32 47.5q149 72 354.5 119.5t407.5 58.5q23 1 44 1q78 0 111 -21q34 -24 53 -123q10 -54 10 -91q0 -32 -7 -52q-4 -12 -32.5 -25.5t-43.5 -13.5q-324 0 -553 -74l21 -10q25 -9 52 -51q24 -37 24 -60 q0 -3 -1 -6l-18 -105q13 3 54.5 14.5t60 16t55 12.5t58.5 9.5t51 2.5t51.5 -4.5t42.5 -15.5q26 -13 41 -104q7 -45 7 -77.5t-7 -53.5q-5 -14 -26 -32.5t-34 -18.5q-94 0 -203 -16.5t-190 -41.5q-20 -173 -49 -514q-3 -43 -47 -43q-63 0 -135 36.5t-118.5 77t-76.5 77.5 q-22 28 -22 56q0 6 1 11z" />
<glyph unicode="g" horiz-adv-x="1234" d="M61 649q0 188 42 345.5t115.5 264.5t175 167.5t220.5 64.5q15 1 29 1q101 0 195 -24q109 -28 186 -73q42 -24 63 -72q15 -35 15 -72q0 -14 -2 -28q-9 -69 -23.5 -109.5t-54.5 -99.5q-27 -40 -48 -55q-34 -25 -81 -25q-26 0 -57 8q-90 23 -90 84q0 20 10 45q7 17 7 34 q0 21 -11 42q-21 37 -80 37q-15 0 -30.5 -9t-24.5 -18t-19.5 -21.5t-11.5 -13.5q-19 -20 -29 -32t-31.5 -54t-33.5 -90.5t-22.5 -137t-10.5 -198.5q0 -254 182 -254q43 0 88.5 43t75.5 119q1 2 2.5 6.5t2.5 7t2 6.5t1.5 6.5t0 5.5t-1.5 6t-3 5q-3 4 -25.5 4t-54 2t-51.5 11 q-31 14 -57 65.5t-36 98.5t-1 53q37 26 128 29h25q78 0 159 -13q93 -15 172.5 -45t96.5 -64q4 -13 6 -27q1 -9 1 -21v-12q-1 -18 -1.5 -29.5t-4.5 -35.5t-5 -30.5t-7 -32.5l-5 -27q-17 -79 -58.5 -166.5t-101 -168t-143 -133t-170.5 -52.5q-132 0 -262 33t-189 94 q-73 75 -118.5 225.5t-45.5 329.5z" />
<glyph unicode="h" horiz-adv-x="1390" d="M61 817q0 31 29 31h78q22 196 47.5 368.5t38.5 221.5q13 39 51 39q53 0 163.5 -17.5t149.5 -32.5q45 -16 45 -50q0 -5 -1 -11q-41 -239 -72 -500l248 17q53 448 82 555q9 39 51 39q52 0 163 -17.5t150 -32.5q43 -17 43 -53v-8q-43 -242 -85 -631t-42 -706q0 -43 -49 -43 q-98 0 -205 41t-143 88q-21 27 -21 67q0 125 21 379q-108 -12 -244 -18q-24 -298 -24 -514q0 -43 -48 -43q-99 0 -205.5 40.5t-144.5 88.5q-20 26 -20 67q0 184 28 455q-34 50 -59 102.5t-25 77.5z" />
<glyph unicode="i" horiz-adv-x="669" d="M61 182q0 233 55 692t85 564q9 39 49 39q53 0 164 -17.5t149 -32.5q44 -16 44 -50q0 -5 -1 -11q-43 -259 -85 -640.5t-42 -696.5q0 -43 -47 -43q-99 0 -205.5 40.5t-144.5 88.5q-21 27 -21 67z" />
<glyph unicode="j" horiz-adv-x="1239" d="M2 328q5 25 16 52.5t32.5 63t35 55.5t47 67t43.5 61q9 14 15.5 20t23.5 12t47.5 -1t75.5 -25q74 -14 93 -51q9 -18 9 -43q0 -27 -10 -62q-8 -41 -9.5 -66.5t9 -40.5t23 -21t32.5 -9q34 0 60.5 15t41 31.5t28 54.5t17.5 55.5t13 63.5q1 6 2 9l15 68q0 8 2 12 q34 203 52.5 364.5t37.5 463.5q3 43 47 43q104 0 211 -33t143 -78q21 -28 21 -60v-8q-13 -176 -39 -432q-12 -158 -33 -282.5t-49.5 -215.5t-69.5 -158.5t-84 -110.5t-103 -71t-118.5 -42t-136.5 -23q-23 -3 -46 -3q-95 0 -203 42q-134 52 -219 133q-74 72 -74 133q0 9 1 17 z" />
<glyph unicode="k" horiz-adv-x="1337" d="M61 831q0 31 31 31h80q54 468 86 576q9 39 49 39q53 0 165 -17.5t151 -32.5q42 -16 42 -50q0 -5 -1 -11q-30 -169 -68 -485l96 8q62 130 154 308t135 253q16 28 43 28q9 0 20 -3q52 -19 137 -71.5t132 -90.5q23 -17 23 -41q0 -13 -7 -29q-21 -42 -148 -234t-206 -302 q53 -123 156 -266.5t163 -192.5q21 -18 21 -39q0 -23 -25 -49q-54 -60 -134.5 -117t-139.5 -57q-49 0 -121.5 87t-137 210t-104.5 241l-94 -6q-22 -308 -22 -489q0 -43 -48 -43q-99 0 -205.5 40.5t-144.5 88.5q-20 26 -20 67q0 165 26 441q-34 60 -59 120.5t-25 87.5z" />
<glyph unicode="l" horiz-adv-x="1042" d="M61 244q0 279 43.5 690.5t94.5 523.5q6 12 9.5 18t15 13.5t26.5 7.5q56 0 165.5 -30.5t147.5 -59.5q45 -32 45 -70q0 -2 -1 -6t-1 -6q-25 -135 -57.5 -379t-54.5 -471v-10q0 -49 49 -49h6q114 6 366 30q3 0 9.5 1.5t9.5 1.5q29 0 43 -25q65 -116 65 -287 q-1 -41 -12.5 -59.5t-34.5 -30.5q-43 -24 -145.5 -41.5t-222.5 -17.5q-169 0 -315.5 41t-231.5 135q-8 8 -8 26q-11 29 -11 54z" />
<glyph unicode="m" horiz-adv-x="1673" d="M63 182q10 244 60.5 687.5t75.5 537.5q13 39 51 39q53 0 163.5 -17t149.5 -32q38 -16 43 -37q8 -14 26 -57t30 -66q100 -294 165 -508q36 79 252 508q21 45 66.5 111.5t66.5 81.5q14 18 41 18q52 0 163.5 -17t150.5 -32q43 -17 43 -54v-8q-44 -249 -85.5 -622.5 t-41.5 -689.5q0 -43 -49 -43q-97 0 -196 40.5t-136 88.5q-21 27 -21 67q0 147 13 344v7q0 27 7 61q8 38 22 85t18 66v7q-12 -18 -23.5 -38t-18 -33t-21 -44t-23.5 -49q-3 -7 -14 -31t-17.5 -37t-18 -36.5t-20.5 -39t-19.5 -33t-21 -30.5t-20.5 -21q-11 -18 -43 -18 q-18 -2 -44 2t-44.5 9t-44 13t-29.5 9q-44 12 -57 45q-5 13 -76 168q-19 36 -43 107.5t-33 94.5q-4 -42 -6 -126t-6 -130q-21 -241 -31 -499q-3 -43 -47 -43q-99 0 -198 39.5t-138 87.5q-21 27 -21 59v8z" />
<glyph unicode="n" horiz-adv-x="1259" d="M61 242q5 232 58.5 640t81.5 515q13 39 51 39q63 0 148 -16.5t130 -33.5q46 -19 43 -53q11 -34 32 -147.5t30 -153.5l53 -291q15 174 20.5 231.5t19.5 170t29.5 166.5t37.5 86q1 2 5 8.5t5.5 9t6 7.5t9 7.5t11 4.5t14.5 2q45 0 153 -28t160 -48q22 -8 31 -37q7 -22 7 -43 q0 -7 -1 -14q-129 -734 -149 -1209q-3 -43 -50 -43q-96 0 -203 45.5t-145 94.5q-13 16 -18 32q-2 7 -29 107t-49 166q-11 30 -20.5 71t-19.5 94t-17 83q-35 -387 -35 -685q0 -43 -47 -43q-201 0 -289 95q-36 38 -50 87.5t-14 82.5z" />
<glyph unicode="o" horiz-adv-x="1267" d="M61 588q0 242 71 443.5t193.5 317t268.5 115.5q108 0 217 -25t172 -65q28 -18 55.5 -45.5t59 -75t54.5 -104.5t38.5 -139.5t15.5 -175.5q0 -243 -70 -444.5t-192 -317t-268 -115.5q-111 0 -220 24t-169 64q-28 18 -56 45.5t-59.5 75t-55.5 105t-39.5 140.5t-15.5 177z M477 535q0 -261 123 -261q49 0 74 25q40 36 80.5 194t40.5 390q0 79 -10 133t-28.5 81t-38.5 37.5t-46 10.5q-53 0 -76 -23q-39 -41 -79 -199t-40 -388z" />
<glyph unicode="p" horiz-adv-x="1146" d="M70 1227q-8 22 -8 39q0 25 18 39q22 17 71 42.5t120.5 54t166 48.5t183.5 20q30 0 214 -58t218 -83q25 -20 59.5 -113t34.5 -161q0 -72 -15 -143t-46.5 -138.5t-76.5 -123t-109.5 -97.5t-141.5 -61q-56 -14 -94 -16h-11q-32 0 -53 10q-26 13 -38 24t-31 36q-5 6 -7 9 q-10 10 -18 20q-25 -258 -35 -536q-3 -43 -47 -43q-98 0 -194.5 40t-135.5 89q-20 26 -20 68q0 230 29.5 493.5t58.5 374.5q-23 34 -53.5 89.5t-38.5 76.5zM485 1112q2 0 5.5 -1t5.5 -1q29 -11 48 -39q15 -21 15 -51q0 -11 -2 -23q-30 -210 -37 -266q99 14 174.5 84.5 t75.5 169.5q0 62 -42.5 108t-119.5 46q-50 0 -123 -27z" />
<glyph unicode="q" horiz-adv-x="1241" d="M63 690q8 158 55.5 302t119 247t163.5 164t187 61q97 0 214.5 -27t194.5 -57t130 -172.5t53 -373.5q0 -216 -65.5 -402t-168.5 -301q12 -28 24.5 -52.5t28.5 -50t26 -40t31 -44.5t29 -42q18 -23 17.5 -56.5t-21.5 -56.5q-47 -52 -132 -101.5t-146 -49.5q-37 0 -69 29.5 t-57.5 83.5t-45 115.5t-37.5 141.5q-91 9 -177.5 30.5t-135.5 47.5q-85 45 -157 224q-62 156 -62 331q0 24 1 49zM471 596q0 -268 123 -268q50 0 74 24q37 34 77 179t48 352q1 22 1 41q0 52 -6 91q-8 53 -27 79t-41 35.5t-54 9.5q-53 0 -76 -23q-119 -125 -119 -520z" />
<glyph unicode="r" horiz-adv-x="1187" d="M70 1180q-8 21 -8 38q0 25 18 39q24 19 75.5 49t128 66.5t171 62t176.5 25.5q62 0 187 -49.5t190 -85.5q38 -21 69 -89.5t31 -139.5q0 -187 -56.5 -312.5t-185.5 -187.5q98 -129 260 -277q20 -18 20 -43q0 -26 -22 -61q-39 -61 -124 -135q-84 -74 -142 -74h-2 q-45 1 -114 99t-130 225t-106 252q-21 -195 -35 -523q-3 -43 -47 -43q-95 0 -183 43t-130 95q-21 27 -21 67q5 226 28.5 453t45.5 340q0 1 -1 2t-1 2q-17 17 -49 75.5t-43 86.5zM451 1075q4 0 34 -6q31 -12 53 -40q17 -21 17 -52q0 -10 -2 -21q-32 -222 -35 -251 q95 18 167.5 98.5t72.5 181.5q0 61 -43 104.5t-121 43.5q-64 0 -143 -58z" />
<glyph unicode="s" horiz-adv-x="1103" d="M23 391v12q0 50 8 69q9 21 30 28q25 8 60 -8.5t76.5 -48t52.5 -37.5q109 -58 225 -58q59 0 81 20q12 11 13 34q0 18 -8 42q-9 28 -42.5 50.5t-80 40t-101 37t-107 48.5t-95.5 68.5t-69.5 103.5t-26.5 146q0 111 49.5 213.5t127.5 172.5t173 111.5t186 41.5 q77 0 148 -13.5t112 -28.5t105 -42q64 -29 106 -77q36 -42 36 -92q0 -9 -1 -18q-1 -8 -4.5 -44t-5.5 -51.5t-9 -51t-15.5 -61t-24 -62t-35.5 -72.5q-1 -2 -6.5 -12.5t-10 -18.5t-13 -20t-16.5 -21t-20.5 -17t-25.5 -11q-15 -1 -18.5 -2.5t-21 2.5t-23.5 6t-25 8t-27 8 q-74 14 -90 52q-7 15 -6 35q0 29 14 69q16 58 16 98q0 26 -8 44q-18 46 -73 46q-71 0 -130.5 -56.5t-60.5 -131.5v-8q0 -61 28 -104q30 -46 78.5 -72t108 -46.5t119 -45t109.5 -59t81 -97t31 -150.5q0 -97 -33.5 -173.5t-90 -122t-125 -68.5t-144.5 -23q-71 0 -133.5 10 t-102.5 22t-85 36t-64.5 37.5t-56.5 40.5q-65 48 -101 131t-38 141z" />
<glyph unicode="t" horiz-adv-x="1200" d="M2 1386q-1 10 -1 18q-1 20 3 30q4 16 25 18q87 12 331 16l142 2q172 0 344 -8q15 -1 50.5 -2.5t65 -3t62.5 -4t55.5 -5.5t30.5 -7q33 -17 76 -102t71 -187q3 -12 3 -24q0 -20 -9 -38q-14 -28 -58 -28h-3q-5 0 -51.5 6t-101 11.5t-144 10.5t-176.5 5h10q105 -14 105 -134 q0 -14 -1 -30q-5 -60 -21.5 -197.5t-25.5 -273t-10 -328.5q0 -68 -21 -105q-20 -36 -57 -36h-2q-99 4 -190.5 43.5t-130.5 87.5q-21 27 -21 67q2 152 18 335.5t39 370t23 187.5q-134 0 -215 -8q-14 1 -26 3.5t-20 3.5t-17.5 7t-13 7.5t-13 11.5t-11.5 12t-13.5 16t-14.5 17 q-18 20 -49.5 94.5t-36.5 140.5z" />
<glyph unicode="u" horiz-adv-x="1337" d="M64 413q2 74 18 167l4 43v12q58 655 96 801q5 14 24.5 25.5t43.5 11.5q194 0 287 -39q17 -7 24.5 -11.5t18.5 -17t14 -34.5t0 -56q-7 -88 -48.5 -376.5t-41.5 -397.5q0 -3 -1 -11t-1 -14q1 -77 13 -117t30.5 -51.5t52.5 -11.5q113 0 147 237q0 10 3 19q16 130 35.5 325.5 t34 329.5t28.5 203q9 39 51 39q62 0 176 -21t158 -38q43 -17 43 -54v-8q-22 -299 -82 -733q-8 -83 -25 -164l-4 -33q-3 -19 -8 -26q-59 -232 -201 -338q-138 -104 -366 -103h-13q-96 1 -199.5 44t-182.5 96q-29 19 -50 39t-42 57.5t-30 84.5q-8 40 -8 100q1 10 1 21z" />
<glyph unicode="v" horiz-adv-x="1298" d="M63 1391q-3 23 22.5 53.5t59.5 30.5q97 0 205 -39.5t144 -87.5q22 -30 56 -321.5t56 -598.5q48 161 130.5 509.5t125.5 489.5q5 16 6 19.5t6 13.5t12 12.5t17 2.5q97 0 212 -45t159 -97q7 -8 9.5 -10.5t7 -10t5.5 -12.5t1 -13t-3 -17q-11 -35 -48.5 -159.5t-61.5 -200.5 t-64 -203.5t-70 -217.5t-65.5 -190t-65.5 -173.5t-55 -119.5q-11 -22 -34 -22q-7 0 -15 2q-16 -1 -36 -1q-72 0 -185 17h-12q-47 0 -140 38t-135 71q-41 30 -47 77q-2 22 -22.5 126.5t-55.5 297t-65 389.5q-47 296 -54 390z" />
<glyph unicode="w" horiz-adv-x="1566" d="M63 1386q0 27 18.5 58t51.5 31q94 0 204 -37.5t155 -79.5q22 -20 33 -301q2 -41 3 -62q5 -138 9 -379q24 69 76 281.5t71 257.5q9 20 19.5 32t17.5 17.5t21.5 5t19 -1.5t23.5 -6q5 -1 8 -2q114 -29 112 -145q0 -208 23 -471q2 0 2 2q41 138 109.5 429.5t105.5 411.5 q14 48 53 48q92 0 196 -52.5t152 -109.5q21 -24 21 -60q0 -11 -2 -24q-57 -324 -154.5 -683t-177.5 -540q-9 -20 -31 -34q-15 -9 -28 -9q-7 0 -13 2q-69 8 -169.5 38.5t-145.5 59.5q-12 8 -20 20.5t-11.5 23.5t-8.5 32t-9 35q-31 90 -60 406q-11 -4 -14 -7 q-24 -96 -80 -283.5t-90 -258.5q-9 -30 -26.5 -44.5t-32.5 -12.5t-27 1q-47 3 -113.5 32.5t-109.5 62.5q-32 24 -47 77q-46 174 -105 609q-30 221 -30 514q0 56 1 116z" />
<glyph unicode="x" horiz-adv-x="1224" d="M0 227q1 42 18 66q2 3 29.5 44.5t50.5 75.5t62 89.5t72 100.5t71.5 93t69.5 80q-143 240 -232 475q-13 35 -13 61q0 30 17 48q39 43 157 81t190 38q63 0 163 -418q146 267 236 385q11 16 41 30q20 10 36 9q8 0 15 -2q53 -20 117.5 -81t109.5 -130q14 -20 14 -61 q0 -46 -18 -70q-27 -39 -136 -164t-210 -234q117 -190 238 -501q13 -35 13 -61q0 -30 -17 -48q-46 -51 -146 -107.5t-162 -56.5q-40 0 -98 148.5t-110 347.5q-151 -299 -250 -457q-15 -25 -44 -25q-13 0 -28 5q-60 22 -131 71.5t-111 104.5q-14 20 -14 58v5z" />
<glyph unicode="y" horiz-adv-x="1173" d="M63 1237q-2 11 -2 24q0 23 6 51q9 44 29 66q11 13 28 24t41 20t43.5 15.5t51.5 13.5t48.5 10.5t50 9.5t42.5 8q11 2 23 2q21 0 44 -6q37 -10 42 -41q21 -126 43 -326.5t37 -282.5q76 211 167.5 394.5t135.5 230.5q2 2 11 12t14.5 15.5t15 11t18.5 6.5q9 2 18 2 q23 0 50 -13q36 -18 89.5 -61.5t57.5 -46.5q40 -25 45 -63q1 -6 1 -12q0 -43 -31 -99q-123 -200 -283.5 -568.5t-220.5 -596.5q-5 -22 -22.5 -39.5t-45.5 -23.5q-7 -2 -14 -2q-23 0 -49 14l-209 102q-26 13 -40 48q-12 32 -12 61v7q2 31 7 52q26 74 110 264q-12 -1 -22 -1 q-45 0 -75 20q-36 25 -66 98q-128 317 -177 600z" />
<glyph unicode="z" d="M23 281q3 44 43 81q79 100 309.5 319.5t425.5 377.5q-37 4 -125 4q-56 -2 -124 -2q-122 0 -282 6q-28 2 -44 8.5t-22.5 12.5t-19.5 25t-24 32q-16 17 -48.5 99t-43.5 149q-4 25 10 43.5t37 21.5q74 10 305 10q144 0 348 -4q73 -1 155 -18.5t107 -30.5q34 -17 79 -102.5 t73 -184.5q2 -7 2 -17q0 -17 -6 -37q-8 -34 -27 -56l-4 -6q-45 -48 -131.5 -121.5t-169.5 -140.5t-192.5 -169t-198.5 -204q-2 -2 -2 -4q118 26 281 26h34q181 -3 225 -26q52 -31 123 -285q10 -34 10 -59q0 -50 -41 -58h-6q-15 1 -56 7q-51 8 -157 19t-231 11q-55 0 -201 -7 q-113 -5 -174 -5h-31q-14 1 -26.5 5.5t-22 8t-20.5 14.5t-16.5 16t-16.5 21.5t-14.5 22t-15.5 26t-15 25.5l-8 13q-9 14 -13.5 22t-13 24.5t-13 29t-8 28.5t-3.5 29z" />
<glyph unicode="{" horiz-adv-x="782" d="M2 625q1 28 24.5 43.5t45.5 17.5q66 6 94.5 40.5t58.5 139.5q17 278 41 353q24 72 64 130t65 68l15 6h2q2 0 4 2q5 2 20.5 9t21.5 9.5t22.5 8.5t24.5 6.5t27 3t31 -1.5q68 -8 129 -47q33 -21 62 -95.5t26 -137.5q0 -17 -10 -36t-22 -18q-22 2 -38.5 18.5t-27.5 18.5h-6 q0 -2 2 -2q-22 5 -39 -0.5t-29.5 -22t-19 -29t-15.5 -34.5q-13 -32 -22 -155t-18 -152q-2 -5 -10 -31t-10.5 -31.5t-10.5 -26.5t-13 -28t-15.5 -23.5t-21 -25t-25 -20t-32.5 -21.5q102 -44 115 -137q4 -29 -8 -79.5t-10 -88.5q0 -6 0.5 -34.5t1 -52t4 -56.5t9 -56.5 t16.5 -42t26 -22.5q9 -2 28.5 2t33 5.5t28.5 -9.5l4 -4q2 2 10 -9q79 -117 84 -217q0 -11 -16.5 -25.5t-32.5 -21.5q-78 -34 -227 -20l-4 -2q-32 7 -60 20.5t-46 26t-38.5 35t-29 34.5t-26.5 39t-23 35q-10 14 -21.5 67.5t-13.5 80.5q-8 35 -9 122.5t-8 120.5 q-25 109 -86 119q-42 5 -49 51q-2 11 -25.5 75t-21.5 108z" />
<glyph unicode="|" horiz-adv-x="679" d="M102 184q0 230 55.5 737t82.5 607q13 39 51 39q45 0 120.5 -16.5t120.5 -32.5q50 -19 43 -60q-37 -204 -83 -685.5t-46 -797.5q0 -43 -45 -43q-38 0 -76.5 15t-64.5 32.5t-58 49.5t-44 46.5t-35 43.5q-21 35 -21 65z" />
<glyph unicode="}" horiz-adv-x="864" d="M2 -27q0 17 10 36t23 18q22 -2 38 -18.5t27 -18.5h6q-1 0 -3 1t-3 1q22 -6 40 -0.5t31 21.5t20 29.5t16 35.5q13 32 22.5 155t18.5 152q3 8 10.5 31.5t10 31t10 27t13 28t15.5 23.5t20.5 24.5t25 20.5t32.5 21q-102 44 -115 137q-4 29 8.5 79.5t10.5 88.5q0 5 -0.5 34 t-1.5 52.5t-4.5 56.5t-9 56.5t-16.5 42t-26 22.5q-9 2 -28.5 -2t-33 -5.5t-28.5 9.5q-2 0 -6 4q-2 -2 -6 5l-2 4q-79 117 -84 217q0 11 16.5 25.5t32.5 21.5q75 34 227 20q0 2 5 2q32 -7 60 -20.5t46 -26t38.5 -35t29 -34.5t26.5 -39t23 -35q9 -14 21 -68.5t14 -79.5 q8 -35 8.5 -122.5t7.5 -120.5q25 -109 86 -119q42 -5 49 -51q2 -11 25.5 -75t21.5 -108q-1 -28 -24 -43.5t-45 -17.5q-68 -7 -96.5 -41.5t-59.5 -140.5q-16 -271 -39 -351q-24 -72 -64 -130t-65 -68l-12 -4q-5 -2 -16.5 -7.5t-16.5 -8t-17 -7.5t-18.5 -7t-19.5 -5.5 t-21 -3.5t-22.5 -1.5t-24.5 1.5q-68 8 -129 47q-33 21 -62 95.5t-26 137.5z" />
<glyph unicode="~" horiz-adv-x="1005" d="M41 612q0 35 43 78q31 34 96 68t148 37q45 2 141.5 -30.5t165.5 -29.5q32 1 56 12t34.5 22.5t24 21t28.5 8.5q30 3 51 -21q123 -139 132 -162q3 -9 3.5 -16.5t-2 -13.5t-5.5 -9.5t-8.5 -9l-8.5 -8.5q-35 -40 -102 -72.5t-127 -35.5q-72 -3 -182.5 30.5t-166.5 28.5 q-33 -2 -71 -27.5t-47 -27.5q-31 -6 -60 16q-104 74 -130 110q-13 18 -13 31z" />
<glyph unicode="&#xa4;" horiz-adv-x="1249" d="M0 449q0 36 43 36q10 0 51.5 -1t71.5 -1l6 64q-4 0 -13.5 -1t-13.5 -1q-35 -4 -48.5 1.5t-22.5 20.5q-54 91 -54 148q0 37 43 37q72 -3 130 0q23 193 51 309q-23 34 -53.5 89.5t-38.5 76.5q-19 55 10 78q22 18 70.5 43t120 53.5t166 48.5t183.5 20q31 0 215 -58t218 -83 q25 -20 59.5 -113t34.5 -161q0 -182 -98 -308t-291 -174q-57 -15 -132 -22t-120 4q-4 -28 -8 -80q323 -8 387 -12q26 5 51 -23q13 -15 24 -52.5t11 -78.5q0 -26 -11 -40.5t-28 -12.5q-14 0 -176 7t-275 11q-8 -135 -10 -235q-3 -43 -47 -43q-98 0 -194.5 40t-135.5 89 q-20 26 -20 68v88q-7 0 -18 -1t-13 -1q-35 -4 -49 1.5t-23 20.5q-53 89 -53 148zM567 1112q2 0 5.5 -1t5.5 -1q29 -11 48.5 -39t12.5 -74q-30 -210 -37 -266q99 14 174.5 84.5t75.5 169.5q0 62 -42.5 108t-119.5 46q-50 0 -123 -27z" />
<glyph unicode="&#xa6;" horiz-adv-x="598" d="M61 184q0 67 6 146t16.5 174t12.5 123q2 15 15 27t36 12q45 0 120.5 -17t121.5 -33q24 -9 33.5 -22t9.5 -37q0 -80 -13 -285.5t-13 -296.5q0 -43 -46 -43q-38 0 -76.5 15t-64.5 32.5t-58 49.5t-44 46.5t-35 43.5q-21 35 -21 65zM137 1106q15 187 62 422q9 39 51 39 q45 0 121 -16.5t121 -32.5q50 -19 43 -60q-13 -74 -24 -162t-26 -228t-18 -171q-3 -23 -13 -33t-32 -10q-24 0 -48 6t-42.5 14t-39.5 23.5t-34 27t-31 31.5t-26 29.5t-24 30t-19 24.5q-23 39 -21 66z" />
<glyph unicode="&#xa7;" horiz-adv-x="958" d="M43 145q0 32 25 105q5 12 13.5 39t16 46t18.5 40t27 31.5t35 9.5q3 0 14 -0.5t15.5 -1.5t14.5 -3.5t19.5 -8t20.5 -13.5l6 -3q5 -3 8.5 -5.5t9.5 -7.5t9.5 -11t7 -14t4.5 -19t0 -24q1 -48 28.5 -72t59.5 -26q36 -3 56 12.5t24 32.5q6 30 -4.5 59t-29.5 50.5t-52 45 t-59 38t-63 34.5q-13 7 -19 10q-20 7 -37 21q-52 40 -73.5 105t-16.5 118q3 37 36.5 105.5t86.5 93.5q-6 6 -27.5 24t-38 36t-34.5 45.5t-27 66.5t-6 86q6 106 110.5 200.5t251.5 100.5q59 3 107.5 -6t74.5 -19.5t75 -35.5l18 -9q29 -12 57 -27.5t59.5 -45t30.5 -56.5 q0 -19 -29 -104q-62 -154 -141 -172q-3 1 -27.5 7.5t-35 10t-29 12.5t-31.5 21q-26 16 -2 90q-1 50 -21.5 75.5t-48.5 27.5q-21 1 -36 -6t-21.5 -19.5t-10 -24t-5 -24t-2.5 -15.5q-14 -35 -5 -65.5t32.5 -51t58 -43.5t73 -41.5t76.5 -45.5t68.5 -56.5t50 -73.5t20.5 -96 q0 -96 -45 -152.5t-122 -74.5q4 -4 30.5 -24.5t40.5 -36t33.5 -44.5t28 -69t6.5 -90q-2 -51 -23 -98t-59 -85.5t-99 -60.5t-135 -18q-183 8 -327 80q-41 18 -78.5 49.5t-36.5 70.5zM412 678q4 -34 18.5 -57.5t28 -32.5t36 -19.5t29.5 -15.5q16 16 26 59t-1 95 q-21 101 -88 145q-62 -62 -49 -174z" />
<glyph unicode="&#xa9;" horiz-adv-x="1474" d="M61 670q0 142 31.5 266t83.5 211t119.5 152.5t137.5 100t140 44.5q117 15 229.5 16t201.5 -18q135 -34 188 -59q133 -62 183 -208q41 -120 36 -309q-2 -60 -16.5 -140.5t-44.5 -183.5t-90 -207.5t-140 -178.5q-34 -39 -86 -68l-10 -6h-2q-71 -38 -155.5 -56t-147.5 -18 q-125 -2 -257.5 42t-178.5 102q-16 20 -47 55t-51 58t-46 65.5t-41 85.5t-26 109t-11 145zM285 637q0 -174 104 -281q40 -42 135 -63.5t213 -18.5q38 1 97 11.5t88 21.5v2q55 31 103 104.5t77.5 157t47.5 155.5t21 116q6 77 -3.5 139t-29 104t-53 73.5t-67 49t-80.5 28.5 t-84 15t-86 6q-241 11 -362 -139.5t-121 -480.5zM418 688q0 178 79 302t189 130q83 6 203 -24q14 -6 18.5 -8.5t22.5 -13t27 -19.5t22 -25.5t17 -34t2.5 -42.5t-11.5 -52q-24 -91 -49 -129q-10 -18 -49.5 -22t-52.5 2q-41 9 -51.5 31t3.5 55q4 24 -15.5 28t-39.5 -12 q-57 -43 -55 -127q2 -40 11.5 -56.5t35.5 -17.5q62 -4 123 21q24 8 40 7t27 -15q10 -14 21.5 -33t15.5 -25q9 -36 -18 -69q-23 -48 -75.5 -89t-123.5 -44q-141 -5 -229 69t-88 213z" />
<glyph unicode="&#xab;" horiz-adv-x="1132" d="M43 489q-2 24 31 89l6 8q116 206 237 358q16 20 40.5 28.5t50.5 -1.5q27 -13 81 -59t80 -76q13 -17 14 -42t-20 -59q-117 -153 -170 -227q80 -125 189 -266q21 -34 21 -59.5t-13 -41.5q-21 -25 -89 -68.5t-114 -68.5q-20 -12 -48.5 1t-41.5 26q-43 49 -88.5 120 t-74 124.5t-77.5 150.5q-10 24 -14 63zM535 489q-3 26 30 89l6 8q24 43 62 118.5t69.5 128t71.5 103.5q16 20 40 28.5t50 -1.5q26 -13 85.5 -66.5t86.5 -85.5q13 -17 14 -41.5t-20 -58.5q-12 -16 -50 -64.5t-72 -93.5t-62 -84q31 -43 94.5 -115t85.5 -102q21 -34 21 -63.5 t-13 -45.5q-24 -28 -75 -68.5t-80 -56.5q-23 -14 -67.5 -2t-59.5 37q-86 142 -203 373q-10 24 -14 63z" />
<glyph unicode="&#xac;" horiz-adv-x="1058" d="M0 776q0 24 15 37.5t28 13.5q84 -1 420.5 21.5t365.5 23.5q26 5 50 -22q9 -3 12 -14q1 -8 10 -40.5t16.5 -70.5t13 -126t3.5 -204q0 -25 -13 -45.5t-34 -17.5q-47 5 -101 27t-75 36q-17 7 -37.5 31.5t-20.5 44.5l-6 125q-154 -5 -442 -33q-34 -4 -58 10.5t-34 32.5 q-13 22 -43 58t-50 64.5t-20 47.5z" />
<glyph unicode="&#xad;" horiz-adv-x="950" d="M41 633q0 24 15 40.5t28 16.5q65 -1 337.5 21t340.5 18q27 5 51 -22q13 -15 34 -83.5t21 -109.5q0 -26 -11 -40.5t-28 -12.5q-84 4 -294.5 -11t-327.5 -28q-34 -4 -58 10.5t-34 32.5q-74 125 -74 168z" />
<glyph unicode="&#xae;" horiz-adv-x="1638" d="M61 670q0 142 36 266t93.5 211t131.5 152.5t148 100t144 44.5q117 15 229 16t201 -18q166 -41 250 -84q281 -141 281 -502v-31q-2 -55 -21 -132.5t-56 -170t-102 -189.5t-147 -169v-2q-34 -40 -88 -66l-14 -8h-4q-86 -40 -199.5 -60t-183.5 -20q-117 -1 -245.5 44.5 t-190.5 99.5q-37 33 -56.5 50.5t-52.5 51.5t-50.5 60t-40.5 67t-34.5 81.5t-20 94t-8.5 113.5zM326 637q0 -174 104 -281q47 -49 144 -87.5t204 -35.5q38 1 97 11.5t88 21.5v2q70 40 126 104.5t88 128t54.5 135.5t31 119.5t11.5 86.5q6 77 -7.5 139t-37 103t-66 72.5 t-79.5 48.5t-93.5 28.5t-92 15.5t-89.5 8q-60 4 -125 -16t-129 -68.5t-115 -119.5t-82.5 -179.5t-31.5 -236.5zM514 475q32 223 64 397l-39 117q-9 26 4 39q31 25 113.5 58.5t158.5 33.5q108 0 184 -48.5t76 -125.5q0 -67 -33 -130t-88 -105q24 -59 54 -115t49 -72 q18 -18 -2 -53q-13 -21 -64 -42t-84 -19q-40 2 -105 223q-5 15 -7 22q-66 -8 -70 -8q-21 -119 -23 -213q-3 -18 -24 -18q-10 0 -32.5 -0.5t-33 -0.5t-27.5 1.5t-26.5 4t-19.5 8t-17 13.5q-10 20 -8 33zM758 782q47 5 78.5 33.5t31.5 79.5q0 17 -14 32t-37 15q-18 0 -51 -22 q15 -15 12 -41q-11 -58 -20 -97z" />
<glyph unicode="&#xb0;" horiz-adv-x="702" d="M61 1194q0 49 22.5 99t63 93t106.5 70t144 27q49 0 96.5 -21.5t84.5 -61.5t53.5 -104.5t1.5 -142.5q-11 -60 -68.5 -117.5t-151.5 -85.5t-214 17q-49 19 -93.5 76.5t-44.5 150.5zM248 1206q-7 -72 42.5 -99.5t108.5 9.5q40 24 53.5 65t8.5 68q-11 69 -99 72 q-37 2 -65 -24t-37.5 -50.5t-11.5 -40.5z" />
<glyph unicode="&#xb1;" horiz-adv-x="995" d="M41 223q0 24 15 41t28 17q65 -1 337.5 20.5t340.5 17.5q27 5 51 -22q13 -15 34 -83.5t21 -109.5q0 -26 -11 -40.5t-28 -12.5q-84 4 -294.5 -11t-327.5 -28q-34 -4 -58 10.5t-34 32.5q-74 125 -74 168zM61 895q0 24 15 40.5t28 16.5q36 -1 250 15q19 164 33 256 q2 18 17.5 30.5t41.5 12.5q43 -3 119.5 -29.5t89.5 -40.5q27 -27 19 -51q-8 -72 -21 -150q142 8 172 6q28 6 52 -22q12 -13 24 -85.5t12 -119.5q0 -25 -13.5 -40t-31.5 -17q-43 -5 -260 -21q-24 -168 -24 -241q-2 -13 -20 -27.5t-42 -13.5q-119 0 -180 32q-14 6 -25 42 t-8 73l10 117l-114 -10q-34 -4 -59 11t-33 32q-22 44 -37 98t-15 86z" />
<glyph unicode="&#xb5;" horiz-adv-x="1036" d="M0 -328q0 189 35 518v5q0 1 1 4.5t1 5.5q4 76 23 245t24 371q0 25 23.5 66t46.5 41q117 0 192 -15t107 -57q20 -26 20 -68q-1 -28 -6 -63t-14 -84t-13 -72l2 2l-8 -53q-2 -6 -2 -20l-6 -76q4 -18 14 -21q22 -9 82 56q7 9 21 25t20 24v6q4 30 14.5 98t18 131t10.5 125 q3 43 47 43q22 0 65 0.5t63.5 0.5t52.5 -2t50 -7t37 -14.5t31 -24.5q24 -30 21 -67q-5 -132 -30.5 -389t-24.5 -316q0 -30 -18 -55t-42 -25q-20 0 -40 3t-43.5 10t-35.5 11t-39 14.5t-32 12.5q-23 8 -42.5 44.5t-21.5 64.5l-6 59v9l-6 26q-10 14 -21.5 1t-15.5 -25 q-65 -129 -92 -168q-23 -32 -92 -70q-25 -286 -43 -551q-3 -43 -49 -43q-153 0 -259 193q-20 13 -20 71z" />
<glyph unicode="&#xb6;" horiz-adv-x="1110" d="M41 965q0 95 31.5 179t84 144t118.5 104t136 65.5t136 21.5q36 0 131 -22t149 -40q154 -48 209 -82l11 -6q21 -16 18 -29q4 -16 2 -26q-2 -9 -18 -96.5t-23 -127t-23.5 -138.5t-25.5 -163.5t-22 -166t-20 -181.5t-12 -175t-5 -179q0 -43 -46 -43q-47 0 -80.5 16t-48 33.5 t-35 50.5t-30.5 46q-21 35 -21 65q0 304 113 924l-90 12q-118 -700 -135 -1110q-3 -43 -45 -43q-32 0 -57.5 6.5t-41.5 14.5t-30.5 25t-21 27.5t-18 32t-16.5 29.5q-20 33 -20 66q0 171 39 463q-293 86 -293 303z" />
<glyph unicode="&#xb7;" horiz-adv-x="462" d="M61 723q0 86 25 192q9 35 45 35q152 0 221 -45q20 -13 35.5 -41.5t11.5 -50.5q-17 -110 -39 -186q-7 -22 -15 -30.5t-28 -8.5q-96 0 -150 16t-87 58q-19 25 -19 61z" />
<glyph unicode="&#xbb;" horiz-adv-x="1132" d="M41 203.5q-1 24.5 20 58.5q17 24 83.5 107.5t101.5 132.5q-30 42 -93 114t-87 105q-21 28 -21.5 62.5t12.5 45.5q24 28 75 68.5t81 56.5q23 14 67.5 2t59.5 -36q86 -142 203 -373q10 -24 14 -64q3 -29 -33 -88l-4 -8q-24 -43 -62 -118.5t-69.5 -128t-71.5 -103.5 q-16 -20 -40 -28.5t-50 1.5q-26 13 -85.5 66.5t-86.5 85.5q-13 17 -14 41.5zM489 790q0 25 13 41q22 25 90.5 69.5t112.5 68.5q20 12 48.5 -1t41.5 -26q43 -49 88.5 -121t72.5 -122.5t78 -151.5q11 -27 15 -64q3 -29 -33 -88l-4 -8q-114 -202 -238 -358q-16 -20 -40 -28.5 t-50 1.5q-27 13 -82 59t-80 76q-13 17 -14 42t20 59q130 172 168 227q-71 113 -186 266q-21 34 -21 59z" />
<glyph unicode="&#x2000;" horiz-adv-x="892" />
<glyph unicode="&#x2001;" horiz-adv-x="1784" />
<glyph unicode="&#x2002;" horiz-adv-x="892" />
<glyph unicode="&#x2003;" horiz-adv-x="1784" />
<glyph unicode="&#x2004;" horiz-adv-x="594" />
<glyph unicode="&#x2005;" horiz-adv-x="446" />
<glyph unicode="&#x2006;" horiz-adv-x="297" />
<glyph unicode="&#x2007;" horiz-adv-x="297" />
<glyph unicode="&#x2008;" horiz-adv-x="223" />
<glyph unicode="&#x2009;" horiz-adv-x="356" />
<glyph unicode="&#x200a;" horiz-adv-x="99" />
<glyph unicode="&#x2010;" horiz-adv-x="950" d="M41 674q0 24 15 40.5t28 16.5q65 -1 337.5 21t340.5 18q27 5 51 -22q13 -15 34 -83.5t21 -109.5q0 -26 -11 -40.5t-28 -12.5q-84 4 -294.5 -11t-327.5 -28q-34 -4 -58 10.5t-34 32.5q-74 125 -74 168z" />
<glyph unicode="&#x2011;" horiz-adv-x="950" d="M41 674q0 24 15 40.5t28 16.5q65 -1 337.5 21t340.5 18q27 5 51 -22q13 -15 34 -83.5t21 -109.5q0 -26 -11 -40.5t-28 -12.5q-84 4 -294.5 -11t-327.5 -28q-34 -4 -58 10.5t-34 32.5q-74 125 -74 168z" />
<glyph unicode="&#x2012;" horiz-adv-x="950" d="M41 674q0 24 15 40.5t28 16.5q65 -1 337.5 21t340.5 18q27 5 51 -22q13 -15 34 -83.5t21 -109.5q0 -26 -11 -40.5t-28 -12.5q-84 4 -294.5 -11t-327.5 -28q-34 -4 -58 10.5t-34 32.5q-74 125 -74 168z" />
<glyph unicode="&#x2013;" horiz-adv-x="1454" d="M43 625q5 8 10.5 10t14.5 2q159 4 622.5 37t546.5 55q27 5 51 -22q20 -22 52 -83.5t32 -99.5q0 -10 -8 -17.5t-24 -12.5t-27.5 -7.5t-29.5 -5t-19 -2.5q-155 -24 -476.5 -48.5t-574.5 -16.5q-61 2 -88 51q-13 21 -32.5 49t-31 47.5t-16.5 38.5q-7 17 -2 25z" />
<glyph unicode="&#x2014;" horiz-adv-x="1853" d="M43 631q5 8 10.5 10t14.5 2q345 3 865 46t703 77q27 6 52 -23q18 -20 51 -89.5t33 -108.5q0 -23 -39.5 -34t-69.5 -11q-34 0 -622 -46t-812 -46q-60 0 -88 51q-13 21 -51 72t-45 75q-7 17 -2 25z" />
<glyph unicode="&#x2018;" horiz-adv-x="462" d="M63 1006q17 110 39 186l7 18q35 102 88 187q21 35 47.5 43t62.5 -8q25 -9 34.5 -23t6.5 -39q-35 -82 -59 -153q54 -13 94 -60q18 -24 18 -61q0 -91 -24 -193q-9 -35 -45 -35q-152 0 -221 45q-20 13 -36 42t-12 51z" />
<glyph unicode="&#x2019;" horiz-adv-x="462" d="M61 1225q0 86 25 192q9 35 45 35q152 0 221 -45q20 -13 35.5 -41.5t11.5 -50.5q-18 -112 -39 -187q-3 -13 -8 -20q-23 -75 -86 -184q-21 -35 -47.5 -43t-62.5 8q-25 9 -34.5 23t-6.5 38q4 10 26 66t33 86q-62 18 -94 61q-19 25 -19 62z" />
<glyph unicode="&#x201a;" horiz-adv-x="462" d="M20 109q0 86 25 192q9 35 45 35q152 0 221 -45q20 -13 35.5 -41.5t11.5 -50.5q-18 -112 -39 -187q-5 -15 -8 -18q-25 -81 -86 -187q-21 -35 -47.5 -42.5t-62.5 8.5q-25 9 -34.5 23t-6.5 38q6 15 18.5 46t22.5 57.5t18 50.5q-59 14 -94 59q-19 25 -19 62z" />
<glyph unicode="&#x201c;" horiz-adv-x="851" d="M63 1006q17 110 39 186l7 18q35 102 88 187q21 35 47.5 43t62.5 -8q25 -9 34.5 -23t6.5 -39q-35 -82 -59 -153q54 -13 94 -60q18 -24 18 -61q0 -91 -24 -193q-9 -35 -45 -35q-152 0 -221 45q-20 13 -36 42t-12 51zM453 1006q17 110 39 186l6 18q35 102 88 187 q21 35 47.5 43t62.5 -8q25 -9 34.5 -23t6.5 -39q-35 -82 -59 -153q54 -13 94 -60q19 -25 19 -61q0 -87 -25 -193q-9 -35 -45 -35q-152 0 -221 45q-20 13 -35.5 42t-11.5 51z" />
<glyph unicode="&#x201d;" horiz-adv-x="851" d="M61 1225q0 86 25 192q9 35 45 35q152 0 221 -45q20 -13 35.5 -41.5t11.5 -50.5q-18 -112 -39 -187q-3 -13 -8 -20q-23 -75 -86 -184q-21 -35 -47.5 -43t-62.5 8q-25 9 -34.5 23t-6.5 38q4 10 26 66t33 86q-62 18 -94 61q-19 25 -19 62zM451 1225q0 90 24 192q9 35 45 35 q152 0 221 -45q20 -13 35.5 -41.5t11.5 -50.5q-19 -120 -38 -187q-3 -10 -9 -20q-23 -75 -86 -184q-21 -35 -47.5 -43t-62.5 8q-25 9 -34.5 23t-6.5 38q4 10 26 66t33 86q-62 18 -94 61q-18 24 -18 62z" />
<glyph unicode="&#x201e;" horiz-adv-x="851" d="M20 119q0 86 25 192q9 35 45 35q152 0 221 -45q20 -13 35.5 -41.5t11.5 -50.5q-17 -110 -39 -186q-4 -14 -8 -21q-23 -75 -86 -184q-21 -35 -47.5 -43t-62.5 8q-25 9 -34.5 23t-6.5 38q4 10 26 66t33 86q-62 18 -94 61q-19 25 -19 62zM410 119q0 90 24 192q9 35 45 35 q152 0 221 -45q20 -13 36 -41.5t12 -50.5q-17 -110 -39 -186q-3 -12 -9 -21q-23 -75 -86 -184q-21 -35 -47.5 -43t-62.5 8q-25 9 -34.5 23t-6.5 38q4 10 26 66t33 86q-62 18 -94 61q-18 24 -18 62z" />
<glyph unicode="&#x2022;" horiz-adv-x="671" d="M102 518q0 90 29 213q6 22 35.5 52t75.5 30q143 0 221 -51q19 -12 32.5 -40.5t10.5 -51.5q-5 -49 -10 -82t-9.5 -49t-15.5 -56q0 -1 -3.5 -12.5t-6 -17.5t-7 -17.5t-10.5 -18.5t-14 -15.5t-19 -13t-24 -5.5q-163 -13 -237 33q-25 15 -36.5 46t-11.5 56z" />
<glyph unicode="&#x2026;" horiz-adv-x="1404" d="M20 109q0 86 25 192q9 35 45 35q152 0 221 -45q20 -13 35.5 -41.5t11.5 -50.5q-18 -112 -39 -187q-7 -22 -15 -30.5t-28 -8.5q-96 0 -150 16t-87 58q-19 25 -19 62zM492 109q0 90 24 192q9 35 45 35q152 0 221 -45q20 -13 35.5 -41.5t11.5 -50.5q-19 -120 -38 -187 q-7 -22 -15 -30.5t-28 -8.5q-96 0 -150.5 16t-87.5 58q-18 24 -18 62zM963 109q0 90 24 192q9 35 45 35q152 0 221 -45q20 -13 35.5 -41.5t11.5 -50.5q-19 -120 -38 -187q-7 -22 -15 -30.5t-28 -8.5q-96 0 -150.5 16t-87.5 58q-18 24 -18 62z" />
<glyph unicode="&#x202f;" horiz-adv-x="356" />
<glyph unicode="&#x2039;" horiz-adv-x="638" d="M27 498q3 17 36 61q43 77 134.5 215.5t107.5 163.5q12 21 38.5 29.5t51.5 -2.5q5 -2 25 -11.5t32.5 -16t30 -16.5t31.5 -20.5t23 -21.5q26 -34 -9 -80q-46 -62 -194 -324q131 -205 201 -295q35 -46 8 -80q-22 -26 -68 -58.5t-80 -51.5q-20 -12 -50.5 0.5t-39.5 25.5 q-172 249 -272 426q-19 22 -6 56z" />
<glyph unicode="&#x203a;" horiz-adv-x="679" d="M55 856q22 27 68 60t80 51q20 12 50.5 -1t39.5 -26q172 -249 272 -426q19 -22 6 -55q-5 -16 -36 -62q-44 -76 -133.5 -212.5t-108.5 -166.5q-12 -21 -38.5 -29t-51.5 3q-5 2 -25 11.5t-32.5 16t-30 16.5t-31.5 20.5t-23 21.5q-26 34 9 80q53 69 194 323q-87 136 -201 295 q-35 46 -8 80z" />
<glyph unicode="&#x205f;" horiz-adv-x="446" />
<glyph unicode="&#x20ac;" horiz-adv-x="1167" d="M4 899q-8 23 7.5 38t31.5 17l240 19q31 126 85.5 221t123.5 151t145.5 82.5t159.5 24.5q76 -2 131 -12t83 -21t76 -35q49 -24 35 -90q-10 -47 -33 -111.5t-36 -84.5q-17 -24 -53.5 -31t-57.5 8q-133 58 -178 53q-43 -26 -82 -135q131 4 160 2q27 5 51 -22q14 -16 57 -107 q10 -22 -6.5 -47.5t-34.5 -23.5q-67 3 -268 -11q-2 -27 -2 -84q141 10 197 7q26 5 51 -23q14 -15 34.5 -52t34.5 -75q16 -43 0 -58.5t-41 -13.5q-81 3 -270 -10q5 -69 22 -102t56 -45q53 -12 99.5 -6t78.5 20q19 8 34 11t31.5 1t29 -14.5t20.5 -36.5l9.5 -28.5t7 -23 t4.5 -21.5t3 -17t1.5 -17t0.5 -14v-14.5v-13.5v-14.5v-15t-0.5 -13.5t-2 -14t-4 -12t-6.5 -12t-9.5 -9t-13 -8t-17.5 -5q-5 -1 -67 -16t-109 -22.5t-98 -8.5q-403 -5 -461 438q-10 -1 -28.5 -3.5t-24.5 -2.5q-10 -4 -23.5 -0.5t-19 4t-15.5 7.5t-13 9t-10.5 9t-8.5 8 q-44 38 -70 119q-8 23 8.5 38t32.5 17q11 1 67 6.5t95 10.5q0 24 2 36q0 9 1 27t1 27l-82 -9q-14 -2 -27.5 1t-24.5 9.5t-18 12.5t-15.5 14.5l-10.5 10.5q-44 38 -66 106z" />
<glyph unicode="&#x2122;" horiz-adv-x="1460" d="M44 1399.5q5 12.5 17 17.5q19 5 213 23q29 1 124 -7t118 -14q28 -6 35 -16q8 -9 12 -33q5 -18 10 -104q3 -22 -5.5 -31t-20.5 -6t-79 13.5t-110 14.5q6 -4 19 -14.5t18 -13.5q33 -22 27 -49q-36 -216 -43 -308q0 -26 -29 -26q-102 0 -180 67q-12 10 -12 41q0 136 43 308 q-27 -2 -80 -11q-10 1 -18 2t-9 0.5t-3.5 1t-2.5 3t-4 7.5t-10 13q-4 5 -9.5 23t-12 42.5t-7.5 28.5q-6 15 -1 27.5zM612 989q0 -40 15 -55q20 -28 83.5 -57t100.5 -29q17 0 29 9t12 22q0 14 2 68.5t2.5 96.5t-2.5 109l6 -10q17 -38 51 -94q18 -31 35 -37q4 -1 20 -7.5 t32.5 -11t31.5 -2.5q16 0 43 27v2l8 10q54 96 64 117q-25 -95 -21 -178q0 -19 15 -41q21 -26 85.5 -51t104.5 -27q15 -1 26 11t9 26q-4 45 3 141.5t18 209t12 128.5q3 34 -31 45q-23 8 -75 15.5t-77 7.5q-2 0 -6 -1t-6 -1q-25 -7 -47 -35q-18 -21 -43.5 -59t-63 -97.5 t-53.5 -83.5q-56 100 -88 178q-18 44 -47 62q-16 13 -84 20q-71 13 -86 13q-12 0 -27 -13.5t-18 -23.5q-13 -59 -25.5 -198t-7.5 -206z" />
<glyph unicode="&#x25fc;" horiz-adv-x="1484" d="M0 0v1485h1485v-1485h-1485z" />
</font>
</defs>
</svg>
